<mxfile host="app.diagrams.net" modified="2023-11-24T11:29:49.954Z" agent="Mozilla/5.0 (Windows NT 10.0; Win64; x64) AppleWebKit/537.36 (KHTML, like Gecko) Chrome/119.0.0.0 Safari/537.36" etag="tlMfDgneFEjeNWIpsfCk" version="22.1.3" type="device">
  <diagram name="Strona-1" id="f8-OlZMK-fTIfZdhVAru">
    <mxGraphModel dx="1436" dy="745" grid="1" gridSize="10" guides="1" tooltips="1" connect="1" arrows="1" fold="1" page="1" pageScale="1" pageWidth="827" pageHeight="583" math="0" shadow="0">
      <root>
        <mxCell id="0" />
        <mxCell id="1" parent="0" />
        <mxCell id="z3keNY-oHB2SGLXwn3pg-4" value="" style="rounded=0;whiteSpace=wrap;html=1;fillColor=#ffe6cc;strokeColor=#d79b00;" parent="1" vertex="1">
          <mxGeometry x="450" y="40" width="210" height="620" as="geometry" />
        </mxCell>
        <mxCell id="9D3ErynZmHLSVG8jpGAm-1" value="" style="rounded=0;whiteSpace=wrap;html=1;fillColor=#ffe6cc;strokeColor=#d79b00;" parent="1" vertex="1">
          <mxGeometry x="10" y="395" width="380" height="295" as="geometry" />
        </mxCell>
        <mxCell id="gSyDXrouMCmdBABHbOLZ-1" value="" style="rounded=0;whiteSpace=wrap;html=1;fillColor=#d5e8d4;strokeColor=#82b366;" parent="1" vertex="1">
          <mxGeometry x="8.5" y="40" width="180" height="330" as="geometry" />
        </mxCell>
        <mxCell id="gSyDXrouMCmdBABHbOLZ-3" value="MAIN" style="rounded=0;whiteSpace=wrap;html=1;" parent="1" vertex="1">
          <mxGeometry y="30" width="78.5" height="20" as="geometry" />
        </mxCell>
        <mxCell id="9D3ErynZmHLSVG8jpGAm-13" style="edgeStyle=orthogonalEdgeStyle;rounded=0;orthogonalLoop=1;jettySize=auto;html=1;entryX=0.5;entryY=0;entryDx=0;entryDy=0;" parent="1" source="gSyDXrouMCmdBABHbOLZ-4" target="9D3ErynZmHLSVG8jpGAm-12" edge="1">
          <mxGeometry relative="1" as="geometry" />
        </mxCell>
        <mxCell id="gSyDXrouMCmdBABHbOLZ-4" value="initialize WiFi &amp;amp; NTP driver" style="rounded=1;whiteSpace=wrap;html=1;" parent="1" vertex="1">
          <mxGeometry x="20" y="424" width="160" height="30" as="geometry" />
        </mxCell>
        <mxCell id="Hz_lffBR66mt_2aPibTp-10" style="edgeStyle=orthogonalEdgeStyle;rounded=0;orthogonalLoop=1;jettySize=auto;html=1;exitX=1;exitY=0.5;exitDx=0;exitDy=0;strokeWidth=2;fillColor=#e1d5e7;strokeColor=#9673a6;startArrow=classic;startFill=1;endArrow=none;endFill=0;" edge="1" parent="1" source="gSyDXrouMCmdBABHbOLZ-5">
          <mxGeometry relative="1" as="geometry">
            <mxPoint x="210.00000000000006" y="589.8915662650602" as="targetPoint" />
          </mxGeometry>
        </mxCell>
        <mxCell id="gSyDXrouMCmdBABHbOLZ-5" value="synchronize time with NTP server" style="rounded=1;whiteSpace=wrap;html=1;" parent="1" vertex="1">
          <mxGeometry x="20" y="575" width="160" height="30" as="geometry" />
        </mxCell>
        <mxCell id="gSyDXrouMCmdBABHbOLZ-8" value="" style="rounded=0;whiteSpace=wrap;html=1;fillColor=#ffe6cc;strokeColor=#d79b00;" parent="1" vertex="1">
          <mxGeometry x="740" y="40" width="231" height="710" as="geometry" />
        </mxCell>
        <mxCell id="gSyDXrouMCmdBABHbOLZ-9" value="Regulator Task" style="rounded=0;whiteSpace=wrap;html=1;" parent="1" vertex="1">
          <mxGeometry x="730" y="30" width="120" height="30" as="geometry" />
        </mxCell>
        <mxCell id="gSyDXrouMCmdBABHbOLZ-32" style="edgeStyle=orthogonalEdgeStyle;rounded=0;orthogonalLoop=1;jettySize=auto;html=1;entryX=0.5;entryY=0;entryDx=0;entryDy=0;exitX=0.5;exitY=1;exitDx=0;exitDy=0;" parent="1" source="gSyDXrouMCmdBABHbOLZ-5" target="TpgPHgEq3tiVcMTZVDCW-112" edge="1">
          <mxGeometry relative="1" as="geometry">
            <mxPoint x="100" y="615" as="sourcePoint" />
            <mxPoint x="100" y="626.25" as="targetPoint" />
          </mxGeometry>
        </mxCell>
        <mxCell id="TpgPHgEq3tiVcMTZVDCW-5" style="edgeStyle=orthogonalEdgeStyle;rounded=0;orthogonalLoop=1;jettySize=auto;html=1;exitX=0.5;exitY=1;exitDx=0;exitDy=0;entryX=0.5;entryY=0;entryDx=0;entryDy=0;" parent="1" source="gSyDXrouMCmdBABHbOLZ-33" target="TpgPHgEq3tiVcMTZVDCW-1" edge="1">
          <mxGeometry relative="1" as="geometry" />
        </mxCell>
        <mxCell id="gSyDXrouMCmdBABHbOLZ-33" value="setup GPIO Expander, relays &amp;amp; fans" style="rounded=1;whiteSpace=wrap;html=1;" parent="1" vertex="1">
          <mxGeometry x="761" y="70" width="160" height="30" as="geometry" />
        </mxCell>
        <mxCell id="TpgPHgEq3tiVcMTZVDCW-34" style="edgeStyle=orthogonalEdgeStyle;rounded=0;orthogonalLoop=1;jettySize=auto;html=1;exitX=0.5;exitY=1;exitDx=0;exitDy=0;entryX=0.5;entryY=0;entryDx=0;entryDy=0;" parent="1" source="TpgPHgEq3tiVcMTZVDCW-1" target="TpgPHgEq3tiVcMTZVDCW-32" edge="1">
          <mxGeometry relative="1" as="geometry" />
        </mxCell>
        <mxCell id="TpgPHgEq3tiVcMTZVDCW-1" value="setup RTD &amp;amp; DS18B20" style="rounded=1;whiteSpace=wrap;html=1;" parent="1" vertex="1">
          <mxGeometry x="761" y="130" width="160" height="30" as="geometry" />
        </mxCell>
        <mxCell id="TpgPHgEq3tiVcMTZVDCW-13" style="edgeStyle=orthogonalEdgeStyle;rounded=0;orthogonalLoop=1;jettySize=auto;html=1;entryX=0.5;entryY=0;entryDx=0;entryDy=0;" parent="1" source="TpgPHgEq3tiVcMTZVDCW-3" target="TpgPHgEq3tiVcMTZVDCW-12" edge="1">
          <mxGeometry relative="1" as="geometry" />
        </mxCell>
        <mxCell id="TpgPHgEq3tiVcMTZVDCW-37" style="edgeStyle=orthogonalEdgeStyle;rounded=0;orthogonalLoop=1;jettySize=auto;html=1;entryX=1;entryY=0.75;entryDx=0;entryDy=0;" parent="1" source="TpgPHgEq3tiVcMTZVDCW-3" target="TpgPHgEq3tiVcMTZVDCW-32" edge="1">
          <mxGeometry relative="1" as="geometry">
            <Array as="points">
              <mxPoint x="941" y="340" />
              <mxPoint x="941" y="212" />
              <mxPoint x="921" y="212" />
            </Array>
          </mxGeometry>
        </mxCell>
        <mxCell id="TpgPHgEq3tiVcMTZVDCW-3" value="profile&lt;br&gt;start&lt;br&gt;event" style="rhombus;whiteSpace=wrap;html=1;" parent="1" vertex="1">
          <mxGeometry x="796" y="310" width="90" height="60" as="geometry" />
        </mxCell>
        <mxCell id="TpgPHgEq3tiVcMTZVDCW-16" style="edgeStyle=orthogonalEdgeStyle;rounded=0;orthogonalLoop=1;jettySize=auto;html=1;entryX=0.5;entryY=0;entryDx=0;entryDy=0;" parent="1" source="TpgPHgEq3tiVcMTZVDCW-10" target="TpgPHgEq3tiVcMTZVDCW-15" edge="1">
          <mxGeometry relative="1" as="geometry" />
        </mxCell>
        <mxCell id="TpgPHgEq3tiVcMTZVDCW-10" value="read current temperature" style="rounded=1;whiteSpace=wrap;html=1;" parent="1" vertex="1">
          <mxGeometry x="761" y="550" width="160" height="30" as="geometry" />
        </mxCell>
        <mxCell id="TpgPHgEq3tiVcMTZVDCW-20" style="edgeStyle=orthogonalEdgeStyle;rounded=0;orthogonalLoop=1;jettySize=auto;html=1;exitX=0.5;exitY=1;exitDx=0;exitDy=0;entryX=0.5;entryY=0;entryDx=0;entryDy=0;" parent="1" source="TpgPHgEq3tiVcMTZVDCW-12" target="TpgPHgEq3tiVcMTZVDCW-19" edge="1">
          <mxGeometry relative="1" as="geometry" />
        </mxCell>
        <mxCell id="TpgPHgEq3tiVcMTZVDCW-21" style="edgeStyle=orthogonalEdgeStyle;rounded=0;orthogonalLoop=1;jettySize=auto;html=1;entryX=1;entryY=0.5;entryDx=0;entryDy=0;" parent="1" source="TpgPHgEq3tiVcMTZVDCW-12" target="TpgPHgEq3tiVcMTZVDCW-10" edge="1">
          <mxGeometry relative="1" as="geometry">
            <Array as="points">
              <mxPoint x="941" y="430" />
              <mxPoint x="941" y="565" />
            </Array>
          </mxGeometry>
        </mxCell>
        <mxCell id="TpgPHgEq3tiVcMTZVDCW-12" value="temperature&lt;br&gt;update" style="rhombus;whiteSpace=wrap;html=1;" parent="1" vertex="1">
          <mxGeometry x="788.5" y="400" width="105" height="60" as="geometry" />
        </mxCell>
        <mxCell id="TpgPHgEq3tiVcMTZVDCW-15" value="regulate to/maintain given temperature" style="rounded=1;whiteSpace=wrap;html=1;" parent="1" vertex="1">
          <mxGeometry x="761" y="610" width="160" height="30" as="geometry" />
        </mxCell>
        <mxCell id="TpgPHgEq3tiVcMTZVDCW-22" style="edgeStyle=orthogonalEdgeStyle;rounded=0;orthogonalLoop=1;jettySize=auto;html=1;exitX=0.5;exitY=1;exitDx=0;exitDy=0;entryX=0.5;entryY=0;entryDx=0;entryDy=0;" parent="1" source="TpgPHgEq3tiVcMTZVDCW-19" target="TpgPHgEq3tiVcMTZVDCW-10" edge="1">
          <mxGeometry relative="1" as="geometry" />
        </mxCell>
        <mxCell id="TpgPHgEq3tiVcMTZVDCW-19" value="update desired temperature" style="rounded=1;whiteSpace=wrap;html=1;" parent="1" vertex="1">
          <mxGeometry x="761" y="490" width="160" height="30" as="geometry" />
        </mxCell>
        <mxCell id="TpgPHgEq3tiVcMTZVDCW-25" style="edgeStyle=orthogonalEdgeStyle;rounded=0;orthogonalLoop=1;jettySize=auto;html=1;exitX=0;exitY=0.5;exitDx=0;exitDy=0;entryX=0.5;entryY=0;entryDx=0;entryDy=0;" parent="1" source="TpgPHgEq3tiVcMTZVDCW-53" target="TpgPHgEq3tiVcMTZVDCW-12" edge="1">
          <mxGeometry relative="1" as="geometry">
            <mxPoint x="842" y="397" as="targetPoint" />
            <Array as="points">
              <mxPoint x="750" y="700" />
              <mxPoint x="750" y="400" />
            </Array>
          </mxGeometry>
        </mxCell>
        <mxCell id="TpgPHgEq3tiVcMTZVDCW-56" style="edgeStyle=orthogonalEdgeStyle;rounded=0;orthogonalLoop=1;jettySize=auto;html=1;entryX=0.5;entryY=0;entryDx=0;entryDy=0;" parent="1" target="TpgPHgEq3tiVcMTZVDCW-53" edge="1">
          <mxGeometry relative="1" as="geometry">
            <mxPoint x="841.75" y="640" as="sourcePoint" />
          </mxGeometry>
        </mxCell>
        <mxCell id="TpgPHgEq3tiVcMTZVDCW-26" value="" style="rounded=0;whiteSpace=wrap;html=1;fillColor=#ffe6cc;strokeColor=#d79b00;" parent="1" vertex="1">
          <mxGeometry x="1110" y="40" width="210" height="580" as="geometry" />
        </mxCell>
        <mxCell id="TpgPHgEq3tiVcMTZVDCW-28" value="setup timer, create Profile Queue" style="rounded=1;whiteSpace=wrap;html=1;" parent="1" vertex="1">
          <mxGeometry x="1120" y="70" width="160" height="30" as="geometry" />
        </mxCell>
        <mxCell id="TpgPHgEq3tiVcMTZVDCW-42" style="edgeStyle=orthogonalEdgeStyle;rounded=0;orthogonalLoop=1;jettySize=auto;html=1;entryX=0.5;entryY=0;entryDx=0;entryDy=0;" parent="1" source="TpgPHgEq3tiVcMTZVDCW-29" target="TpgPHgEq3tiVcMTZVDCW-31" edge="1">
          <mxGeometry relative="1" as="geometry" />
        </mxCell>
        <mxCell id="z3keNY-oHB2SGLXwn3pg-72" style="edgeStyle=orthogonalEdgeStyle;rounded=0;orthogonalLoop=1;jettySize=auto;html=1;entryX=0.5;entryY=0;entryDx=0;entryDy=0;fillColor=#e1d5e7;strokeColor=#9673a6;strokeWidth=2;exitX=0;exitY=0.5;exitDx=0;exitDy=0;" parent="1" source="TpgPHgEq3tiVcMTZVDCW-29" target="TpgPHgEq3tiVcMTZVDCW-145" edge="1">
          <mxGeometry relative="1" as="geometry">
            <Array as="points">
              <mxPoint x="1030" y="325" />
              <mxPoint x="1030" y="330" />
              <mxPoint x="1030" y="330" />
            </Array>
          </mxGeometry>
        </mxCell>
        <mxCell id="TpgPHgEq3tiVcMTZVDCW-29" value="send temperature update to&lt;br&gt;Temperature Queue&amp;nbsp;" style="rounded=1;whiteSpace=wrap;html=1;" parent="1" vertex="1">
          <mxGeometry x="1120" y="310" width="160" height="30" as="geometry" />
        </mxCell>
        <mxCell id="TpgPHgEq3tiVcMTZVDCW-59" style="edgeStyle=orthogonalEdgeStyle;rounded=0;orthogonalLoop=1;jettySize=auto;html=1;exitX=0.5;exitY=1;exitDx=0;exitDy=0;entryX=0.5;entryY=0;entryDx=0;entryDy=0;" parent="1" source="TpgPHgEq3tiVcMTZVDCW-30" target="TpgPHgEq3tiVcMTZVDCW-57" edge="1">
          <mxGeometry relative="1" as="geometry" />
        </mxCell>
        <mxCell id="TpgPHgEq3tiVcMTZVDCW-30" value="set profile&lt;br&gt;start&lt;br&gt;event" style="rhombus;whiteSpace=wrap;html=1;" parent="1" vertex="1">
          <mxGeometry x="1150" y="171.25" width="100" height="67.5" as="geometry" />
        </mxCell>
        <mxCell id="TpgPHgEq3tiVcMTZVDCW-96" style="edgeStyle=orthogonalEdgeStyle;rounded=0;orthogonalLoop=1;jettySize=auto;html=1;entryX=0.5;entryY=0;entryDx=0;entryDy=0;" parent="1" source="TpgPHgEq3tiVcMTZVDCW-31" target="TpgPHgEq3tiVcMTZVDCW-95" edge="1">
          <mxGeometry relative="1" as="geometry" />
        </mxCell>
        <mxCell id="TpgPHgEq3tiVcMTZVDCW-31" value="set timer for given temperature in time" style="rounded=1;whiteSpace=wrap;html=1;" parent="1" vertex="1">
          <mxGeometry x="1120" y="355" width="160" height="30" as="geometry" />
        </mxCell>
        <mxCell id="TpgPHgEq3tiVcMTZVDCW-35" style="edgeStyle=orthogonalEdgeStyle;rounded=0;orthogonalLoop=1;jettySize=auto;html=1;entryX=0.5;entryY=0;entryDx=0;entryDy=0;" parent="1" source="TpgPHgEq3tiVcMTZVDCW-32" target="TpgPHgEq3tiVcMTZVDCW-33" edge="1">
          <mxGeometry relative="1" as="geometry" />
        </mxCell>
        <mxCell id="TpgPHgEq3tiVcMTZVDCW-32" value="read current temperature" style="rounded=1;whiteSpace=wrap;html=1;" parent="1" vertex="1">
          <mxGeometry x="761" y="190" width="160" height="30" as="geometry" />
        </mxCell>
        <mxCell id="TpgPHgEq3tiVcMTZVDCW-36" style="edgeStyle=orthogonalEdgeStyle;rounded=0;orthogonalLoop=1;jettySize=auto;html=1;entryX=0.5;entryY=0;entryDx=0;entryDy=0;" parent="1" source="TpgPHgEq3tiVcMTZVDCW-33" target="TpgPHgEq3tiVcMTZVDCW-3" edge="1">
          <mxGeometry relative="1" as="geometry" />
        </mxCell>
        <mxCell id="z3keNY-oHB2SGLXwn3pg-75" style="edgeStyle=orthogonalEdgeStyle;rounded=0;orthogonalLoop=1;jettySize=auto;html=1;fillColor=#f8cecc;strokeColor=#b85450;strokeWidth=2;endArrow=classic;endFill=1;entryX=0.5;entryY=0;entryDx=0;entryDy=0;" parent="1" source="TpgPHgEq3tiVcMTZVDCW-33" target="TpgPHgEq3tiVcMTZVDCW-120" edge="1">
          <mxGeometry relative="1" as="geometry">
            <mxPoint x="700" y="650" as="targetPoint" />
            <Array as="points">
              <mxPoint x="730" y="265" />
              <mxPoint x="730" y="940" />
              <mxPoint x="790" y="940" />
            </Array>
          </mxGeometry>
        </mxCell>
        <mxCell id="TpgPHgEq3tiVcMTZVDCW-33" value="send data to&lt;br&gt;Regulator Queue" style="rounded=1;whiteSpace=wrap;html=1;" parent="1" vertex="1">
          <mxGeometry x="761" y="250" width="160" height="30" as="geometry" />
        </mxCell>
        <mxCell id="TpgPHgEq3tiVcMTZVDCW-52" style="edgeStyle=orthogonalEdgeStyle;rounded=0;orthogonalLoop=1;jettySize=auto;html=1;exitX=0.5;exitY=1;exitDx=0;exitDy=0;entryX=0.5;entryY=0;entryDx=0;entryDy=0;" parent="1" source="TpgPHgEq3tiVcMTZVDCW-38" target="TpgPHgEq3tiVcMTZVDCW-48" edge="1">
          <mxGeometry relative="1" as="geometry" />
        </mxCell>
        <mxCell id="TpgPHgEq3tiVcMTZVDCW-38" value="sleep until timer resets" style="rounded=1;whiteSpace=wrap;html=1;" parent="1" vertex="1">
          <mxGeometry x="1120" y="450" width="160" height="30" as="geometry" />
        </mxCell>
        <mxCell id="TpgPHgEq3tiVcMTZVDCW-41" style="edgeStyle=orthogonalEdgeStyle;rounded=0;orthogonalLoop=1;jettySize=auto;html=1;exitX=1;exitY=0.5;exitDx=0;exitDy=0;entryX=0.5;entryY=0;entryDx=0;entryDy=0;" parent="1" source="TpgPHgEq3tiVcMTZVDCW-30" target="TpgPHgEq3tiVcMTZVDCW-30" edge="1">
          <mxGeometry relative="1" as="geometry">
            <Array as="points">
              <mxPoint x="1270" y="204.75" />
              <mxPoint x="1270" y="171.75" />
              <mxPoint x="1200" y="171.75" />
            </Array>
          </mxGeometry>
        </mxCell>
        <mxCell id="TpgPHgEq3tiVcMTZVDCW-46" value="Profile Controller Task" style="rounded=0;whiteSpace=wrap;html=1;" parent="1" vertex="1">
          <mxGeometry x="1100" y="30" width="120" height="30" as="geometry" />
        </mxCell>
        <mxCell id="TpgPHgEq3tiVcMTZVDCW-50" style="edgeStyle=orthogonalEdgeStyle;rounded=0;orthogonalLoop=1;jettySize=auto;html=1;entryX=0.5;entryY=0;entryDx=0;entryDy=0;" parent="1" source="TpgPHgEq3tiVcMTZVDCW-48" target="TpgPHgEq3tiVcMTZVDCW-49" edge="1">
          <mxGeometry relative="1" as="geometry" />
        </mxCell>
        <mxCell id="TpgPHgEq3tiVcMTZVDCW-51" style="edgeStyle=orthogonalEdgeStyle;rounded=0;orthogonalLoop=1;jettySize=auto;html=1;entryX=1;entryY=0.5;entryDx=0;entryDy=0;" parent="1" source="TpgPHgEq3tiVcMTZVDCW-48" target="TpgPHgEq3tiVcMTZVDCW-29" edge="1">
          <mxGeometry relative="1" as="geometry">
            <Array as="points">
              <mxPoint x="1300" y="525" />
              <mxPoint x="1300" y="325" />
            </Array>
          </mxGeometry>
        </mxCell>
        <mxCell id="TpgPHgEq3tiVcMTZVDCW-48" value="profile&lt;br&gt;end/stop" style="rhombus;whiteSpace=wrap;html=1;" parent="1" vertex="1">
          <mxGeometry x="1155" y="500" width="90" height="50" as="geometry" />
        </mxCell>
        <mxCell id="TpgPHgEq3tiVcMTZVDCW-72" style="edgeStyle=orthogonalEdgeStyle;rounded=0;orthogonalLoop=1;jettySize=auto;html=1;entryX=1;entryY=0.5;entryDx=0;entryDy=0;" parent="1" source="TpgPHgEq3tiVcMTZVDCW-49" target="-iP6WzHZB8sq2N2tlhSQ-25" edge="1">
          <mxGeometry relative="1" as="geometry">
            <Array as="points">
              <mxPoint x="1200" y="610" />
              <mxPoint x="1310" y="610" />
              <mxPoint x="1310" y="137" />
            </Array>
          </mxGeometry>
        </mxCell>
        <mxCell id="TpgPHgEq3tiVcMTZVDCW-49" value="set profile stopped event" style="rounded=1;whiteSpace=wrap;html=1;" parent="1" vertex="1">
          <mxGeometry x="1120" y="570" width="160" height="30" as="geometry" />
        </mxCell>
        <mxCell id="TpgPHgEq3tiVcMTZVDCW-55" style="edgeStyle=orthogonalEdgeStyle;rounded=0;orthogonalLoop=1;jettySize=auto;html=1;" parent="1" source="TpgPHgEq3tiVcMTZVDCW-53" edge="1">
          <mxGeometry relative="1" as="geometry">
            <mxPoint x="921" y="198" as="targetPoint" />
            <Array as="points">
              <mxPoint x="842" y="740" />
              <mxPoint x="961" y="740" />
              <mxPoint x="961" y="198" />
            </Array>
          </mxGeometry>
        </mxCell>
        <mxCell id="TpgPHgEq3tiVcMTZVDCW-53" value="profile&lt;br&gt;stop/end&lt;br&gt;event" style="rhombus;whiteSpace=wrap;html=1;" parent="1" vertex="1">
          <mxGeometry x="801.75" y="670" width="80" height="60" as="geometry" />
        </mxCell>
        <mxCell id="TpgPHgEq3tiVcMTZVDCW-58" style="edgeStyle=orthogonalEdgeStyle;rounded=0;orthogonalLoop=1;jettySize=auto;html=1;exitX=0.5;exitY=1;exitDx=0;exitDy=0;entryX=0.5;entryY=0;entryDx=0;entryDy=0;" parent="1" source="TpgPHgEq3tiVcMTZVDCW-57" target="TpgPHgEq3tiVcMTZVDCW-29" edge="1">
          <mxGeometry relative="1" as="geometry" />
        </mxCell>
        <mxCell id="TpgPHgEq3tiVcMTZVDCW-57" value="set profile running event" style="rounded=1;whiteSpace=wrap;html=1;" parent="1" vertex="1">
          <mxGeometry x="1120" y="260" width="160" height="30" as="geometry" />
        </mxCell>
        <mxCell id="TpgPHgEq3tiVcMTZVDCW-67" style="edgeStyle=orthogonalEdgeStyle;rounded=0;orthogonalLoop=1;jettySize=auto;html=1;exitX=0.5;exitY=1;exitDx=0;exitDy=0;entryX=0.5;entryY=0;entryDx=0;entryDy=0;" parent="1" source="TpgPHgEq3tiVcMTZVDCW-28" target="-iP6WzHZB8sq2N2tlhSQ-25" edge="1">
          <mxGeometry relative="1" as="geometry">
            <mxPoint x="1200.0000000000002" y="120" as="sourcePoint" />
            <mxPoint x="1200" y="150" as="targetPoint" />
          </mxGeometry>
        </mxCell>
        <mxCell id="TpgPHgEq3tiVcMTZVDCW-73" style="edgeStyle=orthogonalEdgeStyle;rounded=0;orthogonalLoop=1;jettySize=auto;html=1;entryX=0.5;entryY=0;entryDx=0;entryDy=0;exitX=0.5;exitY=1;exitDx=0;exitDy=0;" parent="1" source="-iP6WzHZB8sq2N2tlhSQ-25" target="TpgPHgEq3tiVcMTZVDCW-30" edge="1">
          <mxGeometry relative="1" as="geometry">
            <mxPoint x="1200.0000000000002" y="346" as="sourcePoint" />
          </mxGeometry>
        </mxCell>
        <mxCell id="TpgPHgEq3tiVcMTZVDCW-75" value="" style="rounded=0;whiteSpace=wrap;html=1;fillColor=#ffe6cc;strokeColor=#d79b00;" parent="1" vertex="1">
          <mxGeometry x="10" y="730" width="440" height="820" as="geometry" />
        </mxCell>
        <mxCell id="TpgPHgEq3tiVcMTZVDCW-76" value="SD Task" style="rounded=0;whiteSpace=wrap;html=1;" parent="1" vertex="1">
          <mxGeometry y="720" width="120" height="30" as="geometry" />
        </mxCell>
        <mxCell id="z3keNY-oHB2SGLXwn3pg-28" value="" style="edgeStyle=orthogonalEdgeStyle;rounded=0;orthogonalLoop=1;jettySize=auto;html=1;" parent="1" source="TpgPHgEq3tiVcMTZVDCW-77" target="z3keNY-oHB2SGLXwn3pg-27" edge="1">
          <mxGeometry relative="1" as="geometry" />
        </mxCell>
        <mxCell id="TpgPHgEq3tiVcMTZVDCW-77" value="initialize SPI bus" style="rounded=1;whiteSpace=wrap;html=1;" parent="1" vertex="1">
          <mxGeometry x="28.5" y="760" width="160" height="30" as="geometry" />
        </mxCell>
        <mxCell id="z3keNY-oHB2SGLXwn3pg-34" style="edgeStyle=orthogonalEdgeStyle;rounded=0;orthogonalLoop=1;jettySize=auto;html=1;entryX=0.5;entryY=0;entryDx=0;entryDy=0;" parent="1" source="TpgPHgEq3tiVcMTZVDCW-79" target="z3keNY-oHB2SGLXwn3pg-33" edge="1">
          <mxGeometry relative="1" as="geometry" />
        </mxCell>
        <mxCell id="TpgPHgEq3tiVcMTZVDCW-79" value="receive&lt;br&gt;command&lt;br&gt;from&lt;br&gt;SD Queue" style="rhombus;whiteSpace=wrap;html=1;" parent="1" vertex="1">
          <mxGeometry x="38.5" y="864.98" width="140" height="90" as="geometry" />
        </mxCell>
        <mxCell id="TpgPHgEq3tiVcMTZVDCW-90" value="" style="rounded=0;whiteSpace=wrap;html=1;fillColor=#ffe6cc;strokeColor=#d79b00;" parent="1" vertex="1">
          <mxGeometry x="540" y="1140" width="460" height="410" as="geometry" />
        </mxCell>
        <mxCell id="TpgPHgEq3tiVcMTZVDCW-91" value="UI Manager Task" style="rounded=0;whiteSpace=wrap;html=1;" parent="1" vertex="1">
          <mxGeometry x="530" y="1130" width="120" height="30" as="geometry" />
        </mxCell>
        <mxCell id="TpgPHgEq3tiVcMTZVDCW-94" style="edgeStyle=orthogonalEdgeStyle;rounded=0;orthogonalLoop=1;jettySize=auto;html=1;entryX=0.5;entryY=0;entryDx=0;entryDy=0;exitX=0.5;exitY=1;exitDx=0;exitDy=0;" parent="1" source="TpgPHgEq3tiVcMTZVDCW-100" target="TpgPHgEq3tiVcMTZVDCW-93" edge="1">
          <mxGeometry relative="1" as="geometry">
            <mxPoint x="630" y="1367" as="sourcePoint" />
          </mxGeometry>
        </mxCell>
        <mxCell id="1K6tCah-ZMt7pKSe4DMA-21" style="edgeStyle=orthogonalEdgeStyle;rounded=0;orthogonalLoop=1;jettySize=auto;html=1;entryX=0.5;entryY=0;entryDx=0;entryDy=0;" parent="1" source="TpgPHgEq3tiVcMTZVDCW-92" target="1K6tCah-ZMt7pKSe4DMA-15" edge="1">
          <mxGeometry relative="1" as="geometry" />
        </mxCell>
        <mxCell id="TpgPHgEq3tiVcMTZVDCW-92" value="setup GPIO expander, LEDs, buttons &amp;amp; display" style="rounded=1;whiteSpace=wrap;html=1;" parent="1" vertex="1">
          <mxGeometry x="550" y="1169.97" width="160" height="30" as="geometry" />
        </mxCell>
        <mxCell id="TpgPHgEq3tiVcMTZVDCW-99" style="edgeStyle=orthogonalEdgeStyle;rounded=0;orthogonalLoop=1;jettySize=auto;html=1;entryX=0.5;entryY=0;entryDx=0;entryDy=0;" parent="1" source="TpgPHgEq3tiVcMTZVDCW-93" target="TpgPHgEq3tiVcMTZVDCW-98" edge="1">
          <mxGeometry relative="1" as="geometry" />
        </mxCell>
        <mxCell id="TpgPHgEq3tiVcMTZVDCW-93" value="poll events from Event Queue" style="rounded=1;whiteSpace=wrap;html=1;" parent="1" vertex="1">
          <mxGeometry x="550" y="1373.25" width="160" height="30" as="geometry" />
        </mxCell>
        <mxCell id="TpgPHgEq3tiVcMTZVDCW-97" style="edgeStyle=orthogonalEdgeStyle;rounded=0;orthogonalLoop=1;jettySize=auto;html=1;exitX=0.5;exitY=1;exitDx=0;exitDy=0;entryX=0.5;entryY=0;entryDx=0;entryDy=0;" parent="1" source="TpgPHgEq3tiVcMTZVDCW-95" target="TpgPHgEq3tiVcMTZVDCW-38" edge="1">
          <mxGeometry relative="1" as="geometry" />
        </mxCell>
        <mxCell id="z3keNY-oHB2SGLXwn3pg-79" style="edgeStyle=orthogonalEdgeStyle;rounded=0;orthogonalLoop=1;jettySize=auto;html=1;fillColor=#dae8fc;strokeColor=#6c8ebf;strokeWidth=2;startArrow=none;startFill=0;endArrow=classic;endFill=1;" parent="1" source="TpgPHgEq3tiVcMTZVDCW-95" edge="1">
          <mxGeometry relative="1" as="geometry">
            <mxPoint x="650" y="940" as="targetPoint" />
            <Array as="points">
              <mxPoint x="1090" y="415" />
              <mxPoint x="1090" y="1040" />
              <mxPoint x="590" y="1040" />
              <mxPoint x="590" y="940" />
            </Array>
          </mxGeometry>
        </mxCell>
        <mxCell id="TpgPHgEq3tiVcMTZVDCW-95" value="send current status to Event Queue&amp;nbsp;&amp;nbsp;" style="rounded=1;whiteSpace=wrap;html=1;" parent="1" vertex="1">
          <mxGeometry x="1120" y="400" width="160" height="30" as="geometry" />
        </mxCell>
        <mxCell id="TpgPHgEq3tiVcMTZVDCW-104" style="edgeStyle=orthogonalEdgeStyle;rounded=0;orthogonalLoop=1;jettySize=auto;html=1;entryX=0.5;entryY=0;entryDx=0;entryDy=0;" parent="1" source="TpgPHgEq3tiVcMTZVDCW-98" target="TpgPHgEq3tiVcMTZVDCW-103" edge="1">
          <mxGeometry relative="1" as="geometry" />
        </mxCell>
        <mxCell id="TpgPHgEq3tiVcMTZVDCW-98" value="receive temperature from Temperature Queue" style="rounded=1;whiteSpace=wrap;html=1;" parent="1" vertex="1">
          <mxGeometry x="550" y="1428" width="160" height="30" as="geometry" />
        </mxCell>
        <mxCell id="TpgPHgEq3tiVcMTZVDCW-100" value="poll button events from Interrupt Event Queue" style="rounded=1;whiteSpace=wrap;html=1;" parent="1" vertex="1">
          <mxGeometry x="550" y="1320" width="160" height="30" as="geometry" />
        </mxCell>
        <mxCell id="7Rm9NRKuivuSp9orqNc0-6" style="edgeStyle=orthogonalEdgeStyle;rounded=0;orthogonalLoop=1;jettySize=auto;html=1;exitX=1;exitY=0.25;exitDx=0;exitDy=0;fillColor=#dae8fc;strokeColor=#6c8ebf;strokeWidth=2;" parent="1" source="TpgPHgEq3tiVcMTZVDCW-103" edge="1">
          <mxGeometry relative="1" as="geometry">
            <mxPoint x="750" y="1040" as="targetPoint" />
          </mxGeometry>
        </mxCell>
        <mxCell id="TpgPHgEq3tiVcMTZVDCW-103" value="start &amp;amp; run Peripherals State Machine" style="rounded=1;whiteSpace=wrap;html=1;" parent="1" vertex="1">
          <mxGeometry x="550" y="1480" width="160" height="30" as="geometry" />
        </mxCell>
        <mxCell id="TpgPHgEq3tiVcMTZVDCW-105" style="edgeStyle=orthogonalEdgeStyle;rounded=0;orthogonalLoop=1;jettySize=auto;html=1;exitX=0.5;exitY=1;exitDx=0;exitDy=0;" parent="1" source="TpgPHgEq3tiVcMTZVDCW-103" edge="1">
          <mxGeometry relative="1" as="geometry">
            <mxPoint x="710" y="1500" as="targetPoint" />
            <Array as="points">
              <mxPoint x="630" y="1520" />
              <mxPoint x="721" y="1520" />
              <mxPoint x="721" y="1500" />
              <mxPoint x="710" y="1500" />
            </Array>
          </mxGeometry>
        </mxCell>
        <mxCell id="TpgPHgEq3tiVcMTZVDCW-106" value="" style="rounded=0;whiteSpace=wrap;html=1;fillColor=#ffe6cc;strokeColor=#d79b00;" parent="1" vertex="1">
          <mxGeometry x="1070" y="1071.5" width="200" height="478.5" as="geometry" />
        </mxCell>
        <mxCell id="TpgPHgEq3tiVcMTZVDCW-107" value="Server Task" style="rounded=0;whiteSpace=wrap;html=1;" parent="1" vertex="1">
          <mxGeometry x="1060" y="1060" width="120" height="30" as="geometry" />
        </mxCell>
        <mxCell id="TpgPHgEq3tiVcMTZVDCW-116" style="edgeStyle=orthogonalEdgeStyle;rounded=0;orthogonalLoop=1;jettySize=auto;html=1;entryX=0.5;entryY=0;entryDx=0;entryDy=0;" parent="1" source="TpgPHgEq3tiVcMTZVDCW-109" target="TpgPHgEq3tiVcMTZVDCW-110" edge="1">
          <mxGeometry relative="1" as="geometry" />
        </mxCell>
        <mxCell id="TpgPHgEq3tiVcMTZVDCW-109" value="connect to Server" style="rounded=1;whiteSpace=wrap;html=1;" parent="1" vertex="1">
          <mxGeometry x="1080" y="1196.22" width="160" height="30" as="geometry" />
        </mxCell>
        <mxCell id="7Rm9NRKuivuSp9orqNc0-14" style="edgeStyle=orthogonalEdgeStyle;rounded=0;orthogonalLoop=1;jettySize=auto;html=1;entryX=0.5;entryY=0;entryDx=0;entryDy=0;" parent="1" source="TpgPHgEq3tiVcMTZVDCW-110" target="7Rm9NRKuivuSp9orqNc0-13" edge="1">
          <mxGeometry relative="1" as="geometry" />
        </mxCell>
        <mxCell id="TpgPHgEq3tiVcMTZVDCW-110" value="setup endpoints &amp;amp; callbacks" style="rounded=1;whiteSpace=wrap;html=1;" parent="1" vertex="1">
          <mxGeometry x="1080" y="1250" width="160" height="30" as="geometry" />
        </mxCell>
        <mxCell id="Hz_lffBR66mt_2aPibTp-11" style="edgeStyle=orthogonalEdgeStyle;rounded=0;orthogonalLoop=1;jettySize=auto;html=1;exitX=1;exitY=0.25;exitDx=0;exitDy=0;fillColor=#e1d5e7;strokeColor=#9673a6;strokeWidth=2;startArrow=classic;startFill=1;endArrow=none;endFill=0;" edge="1" parent="1" source="TpgPHgEq3tiVcMTZVDCW-112">
          <mxGeometry relative="1" as="geometry">
            <mxPoint x="210.00000000000006" y="632.5421686746987" as="targetPoint" />
          </mxGeometry>
        </mxCell>
        <mxCell id="TpgPHgEq3tiVcMTZVDCW-112" value="handle WiFi events" style="rounded=1;whiteSpace=wrap;html=1;" parent="1" vertex="1">
          <mxGeometry x="20" y="625" width="160" height="30" as="geometry" />
        </mxCell>
        <mxCell id="z3keNY-oHB2SGLXwn3pg-69" style="edgeStyle=orthogonalEdgeStyle;rounded=0;orthogonalLoop=1;jettySize=auto;html=1;entryX=0.5;entryY=0;entryDx=0;entryDy=0;" parent="1" source="TpgPHgEq3tiVcMTZVDCW-115" target="z3keNY-oHB2SGLXwn3pg-66" edge="1">
          <mxGeometry relative="1" as="geometry" />
        </mxCell>
        <mxCell id="TpgPHgEq3tiVcMTZVDCW-115" value="run server &amp;amp; handle events" style="rounded=1;whiteSpace=wrap;html=1;" parent="1" vertex="1">
          <mxGeometry x="1080" y="1400" width="160" height="30" as="geometry" />
        </mxCell>
        <mxCell id="z3keNY-oHB2SGLXwn3pg-82" style="edgeStyle=orthogonalEdgeStyle;rounded=0;orthogonalLoop=1;jettySize=auto;html=1;entryX=0;entryY=0.5;entryDx=0;entryDy=0;fillColor=#f8cecc;strokeColor=#b85450;strokeWidth=2;exitX=0.5;exitY=1;exitDx=0;exitDy=0;" parent="1" source="TpgPHgEq3tiVcMTZVDCW-120" target="TpgPHgEq3tiVcMTZVDCW-98" edge="1">
          <mxGeometry relative="1" as="geometry">
            <Array as="points">
              <mxPoint x="790" y="1110" />
              <mxPoint x="520" y="1110" />
              <mxPoint x="520" y="1443" />
            </Array>
          </mxGeometry>
        </mxCell>
        <mxCell id="TpgPHgEq3tiVcMTZVDCW-120" value="Regulator&lt;br&gt;Queue" style="shape=trapezoid;perimeter=trapezoidPerimeter;whiteSpace=wrap;html=1;fixedSize=1;fillColor=#f8cecc;strokeColor=#b85450;" parent="1" vertex="1">
          <mxGeometry x="740" y="960" width="100" height="40" as="geometry" />
        </mxCell>
        <mxCell id="TpgPHgEq3tiVcMTZVDCW-125" value="Event&lt;br&gt;Queue" style="shape=trapezoid;perimeter=trapezoidPerimeter;whiteSpace=wrap;html=1;fixedSize=1;fillColor=#dae8fc;strokeColor=#6c8ebf;" parent="1" vertex="1">
          <mxGeometry x="599.75" y="960" width="100" height="40" as="geometry" />
        </mxCell>
        <mxCell id="z3keNY-oHB2SGLXwn3pg-78" style="edgeStyle=orthogonalEdgeStyle;rounded=0;orthogonalLoop=1;jettySize=auto;html=1;entryX=0;entryY=0.5;entryDx=0;entryDy=0;fillColor=#f5f5f5;strokeColor=#666666;strokeWidth=2;exitX=0.5;exitY=1;exitDx=0;exitDy=0;" parent="1" source="TpgPHgEq3tiVcMTZVDCW-130" target="-iP6WzHZB8sq2N2tlhSQ-25" edge="1">
          <mxGeometry relative="1" as="geometry">
            <mxPoint x="630" y="660" as="sourcePoint" />
            <mxPoint x="1151" y="119.16" as="targetPoint" />
            <Array as="points">
              <mxPoint x="1160" y="1040" />
              <mxPoint x="1220" y="1040" />
              <mxPoint x="1220" y="780" />
              <mxPoint x="1100" y="780" />
              <mxPoint x="1100" y="137" />
            </Array>
          </mxGeometry>
        </mxCell>
        <mxCell id="TpgPHgEq3tiVcMTZVDCW-130" value="Profile&lt;br&gt;Queue" style="shape=trapezoid;perimeter=trapezoidPerimeter;whiteSpace=wrap;html=1;fixedSize=1;fillColor=#f5f5f5;strokeColor=#666666;fontColor=#333333;" parent="1" vertex="1">
          <mxGeometry x="1110" y="960" width="100" height="41.28" as="geometry" />
        </mxCell>
        <mxCell id="z3keNY-oHB2SGLXwn3pg-73" style="edgeStyle=orthogonalEdgeStyle;rounded=0;orthogonalLoop=1;jettySize=auto;html=1;entryX=0.5;entryY=0;entryDx=0;entryDy=0;fillColor=#e1d5e7;strokeColor=#9673a6;strokeWidth=2;exitX=0.5;exitY=1;exitDx=0;exitDy=0;" parent="1" source="TpgPHgEq3tiVcMTZVDCW-145" target="TpgPHgEq3tiVcMTZVDCW-12" edge="1">
          <mxGeometry relative="1" as="geometry">
            <Array as="points">
              <mxPoint x="1030" y="400" />
            </Array>
          </mxGeometry>
        </mxCell>
        <mxCell id="TpgPHgEq3tiVcMTZVDCW-145" value="Temperature Queue" style="shape=trapezoid;perimeter=trapezoidPerimeter;whiteSpace=wrap;html=1;fixedSize=1;fillColor=#e1d5e7;strokeColor=#9673a6;" parent="1" vertex="1">
          <mxGeometry x="980" y="350" width="100" height="40" as="geometry" />
        </mxCell>
        <mxCell id="9D3ErynZmHLSVG8jpGAm-19" style="edgeStyle=orthogonalEdgeStyle;rounded=0;orthogonalLoop=1;jettySize=auto;html=1;entryX=0.5;entryY=0;entryDx=0;entryDy=0;" parent="1" source="-iP6WzHZB8sq2N2tlhSQ-4" target="9D3ErynZmHLSVG8jpGAm-15" edge="1">
          <mxGeometry relative="1" as="geometry" />
        </mxCell>
        <mxCell id="-iP6WzHZB8sq2N2tlhSQ-4" value="load default config" style="rounded=1;whiteSpace=wrap;html=1;" parent="1" vertex="1">
          <mxGeometry x="485.24" y="124.97" width="160" height="30" as="geometry" />
        </mxCell>
        <mxCell id="-iP6WzHZB8sq2N2tlhSQ-16" style="edgeStyle=orthogonalEdgeStyle;rounded=0;orthogonalLoop=1;jettySize=auto;html=1;entryX=0.5;entryY=0;entryDx=0;entryDy=0;" parent="1" source="-iP6WzHZB8sq2N2tlhSQ-13" target="gSyDXrouMCmdBABHbOLZ-5" edge="1">
          <mxGeometry relative="1" as="geometry" />
        </mxCell>
        <mxCell id="Hz_lffBR66mt_2aPibTp-9" style="edgeStyle=orthogonalEdgeStyle;rounded=0;orthogonalLoop=1;jettySize=auto;html=1;entryX=0.5;entryY=1;entryDx=0;entryDy=0;fillColor=#e1d5e7;strokeColor=#9673a6;strokeWidth=2;exitX=1.001;exitY=0.554;exitDx=0;exitDy=0;exitPerimeter=0;startArrow=classic;startFill=1;endArrow=none;endFill=0;" edge="1" parent="1" source="9D3ErynZmHLSVG8jpGAm-12" target="Hz_lffBR66mt_2aPibTp-8">
          <mxGeometry relative="1" as="geometry">
            <Array as="points">
              <mxPoint x="210" y="491" />
              <mxPoint x="210" y="720" />
              <mxPoint x="460" y="720" />
              <mxPoint x="460" y="850" />
              <mxPoint x="520" y="850" />
            </Array>
          </mxGeometry>
        </mxCell>
        <mxCell id="-iP6WzHZB8sq2N2tlhSQ-13" value="connect to WiFi" style="rounded=1;whiteSpace=wrap;html=1;" parent="1" vertex="1">
          <mxGeometry x="20" y="525" width="160" height="30" as="geometry" />
        </mxCell>
        <mxCell id="9D3ErynZmHLSVG8jpGAm-7" style="edgeStyle=orthogonalEdgeStyle;rounded=0;orthogonalLoop=1;jettySize=auto;html=1;" parent="1" source="-iP6WzHZB8sq2N2tlhSQ-17" target="9D3ErynZmHLSVG8jpGAm-3" edge="1">
          <mxGeometry relative="1" as="geometry" />
        </mxCell>
        <mxCell id="-iP6WzHZB8sq2N2tlhSQ-17" value="start UI Manager Task" style="rounded=1;whiteSpace=wrap;html=1;" parent="1" vertex="1">
          <mxGeometry x="18.5" y="120.03" width="160" height="30" as="geometry" />
        </mxCell>
        <mxCell id="-iP6WzHZB8sq2N2tlhSQ-23" style="edgeStyle=orthogonalEdgeStyle;rounded=0;orthogonalLoop=1;jettySize=auto;html=1;" parent="1" source="-iP6WzHZB8sq2N2tlhSQ-21" target="-iP6WzHZB8sq2N2tlhSQ-22" edge="1">
          <mxGeometry relative="1" as="geometry" />
        </mxCell>
        <mxCell id="-iP6WzHZB8sq2N2tlhSQ-21" value="WiFi events callback" style="rounded=1;whiteSpace=wrap;html=1;" parent="1" vertex="1">
          <mxGeometry x="221.75" y="575" width="160" height="30" as="geometry" />
        </mxCell>
        <mxCell id="z3keNY-oHB2SGLXwn3pg-77" style="edgeStyle=orthogonalEdgeStyle;rounded=0;orthogonalLoop=1;jettySize=auto;html=1;entryX=0.5;entryY=0;entryDx=0;entryDy=0;fillColor=#dae8fc;strokeColor=#6c8ebf;strokeWidth=2;exitX=0.5;exitY=1;exitDx=0;exitDy=0;" parent="1" source="-iP6WzHZB8sq2N2tlhSQ-22" target="TpgPHgEq3tiVcMTZVDCW-125" edge="1">
          <mxGeometry relative="1" as="geometry">
            <Array as="points">
              <mxPoint x="302" y="700" />
              <mxPoint x="650" y="700" />
            </Array>
            <mxPoint x="130" y="680" as="sourcePoint" />
          </mxGeometry>
        </mxCell>
        <mxCell id="-iP6WzHZB8sq2N2tlhSQ-22" value="send event to Event Queue" style="rounded=1;whiteSpace=wrap;html=1;" parent="1" vertex="1">
          <mxGeometry x="221.75" y="625" width="160" height="30" as="geometry" />
        </mxCell>
        <mxCell id="-iP6WzHZB8sq2N2tlhSQ-24" style="edgeStyle=orthogonalEdgeStyle;rounded=0;orthogonalLoop=1;jettySize=auto;html=1;entryX=0.5;entryY=1;entryDx=0;entryDy=0;exitX=1;exitY=0.75;exitDx=0;exitDy=0;" parent="1" source="TpgPHgEq3tiVcMTZVDCW-112" target="TpgPHgEq3tiVcMTZVDCW-112" edge="1">
          <mxGeometry relative="1" as="geometry">
            <Array as="points">
              <mxPoint x="200" y="647" />
              <mxPoint x="200" y="675" />
              <mxPoint x="100" y="675" />
            </Array>
          </mxGeometry>
        </mxCell>
        <mxCell id="-iP6WzHZB8sq2N2tlhSQ-25" value="wait for profile update from Event Queue" style="rounded=1;whiteSpace=wrap;html=1;" parent="1" vertex="1">
          <mxGeometry x="1120" y="119" width="160" height="36" as="geometry" />
        </mxCell>
        <mxCell id="z3keNY-oHB2SGLXwn3pg-26" style="edgeStyle=orthogonalEdgeStyle;rounded=0;orthogonalLoop=1;jettySize=auto;html=1;entryX=0.5;entryY=0;entryDx=0;entryDy=0;" parent="1" source="z3keNY-oHB2SGLXwn3pg-2" target="-iP6WzHZB8sq2N2tlhSQ-17" edge="1">
          <mxGeometry relative="1" as="geometry" />
        </mxCell>
        <mxCell id="z3keNY-oHB2SGLXwn3pg-2" value="start System Manager Task" style="rounded=1;whiteSpace=wrap;html=1;" parent="1" vertex="1">
          <mxGeometry x="18.5" y="69.03" width="160" height="30" as="geometry" />
        </mxCell>
        <mxCell id="z3keNY-oHB2SGLXwn3pg-5" value="System Manager Task" style="rounded=0;whiteSpace=wrap;html=1;" parent="1" vertex="1">
          <mxGeometry x="439.75" y="30" width="130" height="30" as="geometry" />
        </mxCell>
        <mxCell id="9D3ErynZmHLSVG8jpGAm-17" style="edgeStyle=orthogonalEdgeStyle;rounded=0;orthogonalLoop=1;jettySize=auto;html=1;entryX=0.5;entryY=0;entryDx=0;entryDy=0;" parent="1" source="z3keNY-oHB2SGLXwn3pg-6" target="-iP6WzHZB8sq2N2tlhSQ-4" edge="1">
          <mxGeometry relative="1" as="geometry" />
        </mxCell>
        <mxCell id="z3keNY-oHB2SGLXwn3pg-6" value="create all Events Queues" style="rounded=1;whiteSpace=wrap;html=1;" parent="1" vertex="1">
          <mxGeometry x="485.24" y="70" width="160" height="30" as="geometry" />
        </mxCell>
        <mxCell id="9D3ErynZmHLSVG8jpGAm-26" style="edgeStyle=orthogonalEdgeStyle;rounded=0;orthogonalLoop=1;jettySize=auto;html=1;entryX=0.5;entryY=0;entryDx=0;entryDy=0;" parent="1" source="z3keNY-oHB2SGLXwn3pg-8" target="z3keNY-oHB2SGLXwn3pg-10" edge="1">
          <mxGeometry relative="1" as="geometry" />
        </mxCell>
        <mxCell id="7Rm9NRKuivuSp9orqNc0-3" style="edgeStyle=orthogonalEdgeStyle;rounded=0;orthogonalLoop=1;jettySize=auto;html=1;entryX=0.5;entryY=0;entryDx=0;entryDy=0;fillColor=#fff2cc;strokeColor=#d6b656;strokeWidth=2;exitX=1;exitY=0.5;exitDx=0;exitDy=0;" parent="1" edge="1">
          <mxGeometry relative="1" as="geometry">
            <Array as="points">
              <mxPoint x="710" y="210" />
              <mxPoint x="710" y="800" />
              <mxPoint x="910" y="800" />
            </Array>
            <mxPoint x="615.2600000000002" y="209.78999999999996" as="sourcePoint" />
            <mxPoint x="910" y="970.1800000000002" as="targetPoint" />
          </mxGeometry>
        </mxCell>
        <mxCell id="7Rm9NRKuivuSp9orqNc0-4" style="edgeStyle=orthogonalEdgeStyle;rounded=0;orthogonalLoop=1;jettySize=auto;html=1;entryX=0.5;entryY=0;entryDx=0;entryDy=0;fillColor=#d5e8d4;strokeColor=#82b366;strokeWidth=2;exitX=1;exitY=0.664;exitDx=0;exitDy=0;exitPerimeter=0;" parent="1" source="z3keNY-oHB2SGLXwn3pg-8" target="z3keNY-oHB2SGLXwn3pg-83" edge="1">
          <mxGeometry relative="1" as="geometry">
            <Array as="points">
              <mxPoint x="680" y="410" />
              <mxPoint x="680" y="920" />
              <mxPoint x="520" y="920" />
            </Array>
            <mxPoint x="640" y="416" as="sourcePoint" />
          </mxGeometry>
        </mxCell>
        <mxCell id="7Rm9NRKuivuSp9orqNc0-19" style="edgeStyle=orthogonalEdgeStyle;rounded=0;orthogonalLoop=1;jettySize=auto;html=1;entryX=0.5;entryY=0;entryDx=0;entryDy=0;fillColor=#f5f5f5;strokeColor=#666666;strokeWidth=2;exitX=1.002;exitY=0.336;exitDx=0;exitDy=0;exitPerimeter=0;" parent="1" source="z3keNY-oHB2SGLXwn3pg-8" target="TpgPHgEq3tiVcMTZVDCW-130" edge="1">
          <mxGeometry relative="1" as="geometry">
            <Array as="points">
              <mxPoint x="700" y="400" />
              <mxPoint x="700" y="810" />
              <mxPoint x="1160" y="810" />
            </Array>
            <mxPoint x="660" y="285" as="sourcePoint" />
          </mxGeometry>
        </mxCell>
        <mxCell id="7Rm9NRKuivuSp9orqNc0-22" style="edgeStyle=orthogonalEdgeStyle;rounded=0;orthogonalLoop=1;jettySize=auto;html=1;entryX=0.5;entryY=0;entryDx=0;entryDy=0;fillColor=#ffe6cc;strokeColor=#d79b00;strokeWidth=2;exitX=1;exitY=0.5;exitDx=0;exitDy=0;" parent="1" source="z3keNY-oHB2SGLXwn3pg-8" target="7Rm9NRKuivuSp9orqNc0-7" edge="1">
          <mxGeometry relative="1" as="geometry">
            <Array as="points">
              <mxPoint x="690" y="405" />
              <mxPoint x="690" y="820" />
              <mxPoint x="1030" y="820" />
            </Array>
            <mxPoint x="660" y="293" as="sourcePoint" />
          </mxGeometry>
        </mxCell>
        <mxCell id="9D3ErynZmHLSVG8jpGAm-27" style="edgeStyle=orthogonalEdgeStyle;rounded=0;orthogonalLoop=1;jettySize=auto;html=1;entryX=0;entryY=0.5;entryDx=0;entryDy=0;" parent="1" source="z3keNY-oHB2SGLXwn3pg-10" target="1K6tCah-ZMt7pKSe4DMA-26" edge="1">
          <mxGeometry relative="1" as="geometry">
            <Array as="points">
              <mxPoint x="564.99" y="480" />
              <mxPoint x="469.99" y="480" />
              <mxPoint x="469.99" y="355" />
            </Array>
          </mxGeometry>
        </mxCell>
        <mxCell id="z3keNY-oHB2SGLXwn3pg-10" value="send response to appropriate task" style="rounded=1;whiteSpace=wrap;html=1;" parent="1" vertex="1">
          <mxGeometry x="485.24" y="439.94000000000005" width="160" height="30" as="geometry" />
        </mxCell>
        <mxCell id="z3keNY-oHB2SGLXwn3pg-23" style="edgeStyle=orthogonalEdgeStyle;rounded=0;orthogonalLoop=1;jettySize=auto;html=1;" parent="1" source="z3keNY-oHB2SGLXwn3pg-12" target="z3keNY-oHB2SGLXwn3pg-13" edge="1">
          <mxGeometry relative="1" as="geometry" />
        </mxCell>
        <mxCell id="z3keNY-oHB2SGLXwn3pg-12" value="receive command" style="rounded=1;whiteSpace=wrap;html=1;" parent="1" vertex="1">
          <mxGeometry x="489.73" y="560" width="160" height="30" as="geometry" />
        </mxCell>
        <mxCell id="1K6tCah-ZMt7pKSe4DMA-37" style="edgeStyle=orthogonalEdgeStyle;rounded=0;orthogonalLoop=1;jettySize=auto;html=1;entryX=0;entryY=0.5;entryDx=0;entryDy=0;" parent="1" source="z3keNY-oHB2SGLXwn3pg-13" target="z3keNY-oHB2SGLXwn3pg-12" edge="1">
          <mxGeometry relative="1" as="geometry">
            <Array as="points">
              <mxPoint x="569.98" y="650" />
              <mxPoint x="474.98" y="650" />
              <mxPoint x="474.98" y="575" />
            </Array>
          </mxGeometry>
        </mxCell>
        <mxCell id="z3keNY-oHB2SGLXwn3pg-13" value="send command event to Event Queue" style="rounded=1;whiteSpace=wrap;html=1;" parent="1" vertex="1">
          <mxGeometry x="489.73" y="610" width="160" height="30" as="geometry" />
        </mxCell>
        <mxCell id="z3keNY-oHB2SGLXwn3pg-30" value="" style="edgeStyle=orthogonalEdgeStyle;rounded=0;orthogonalLoop=1;jettySize=auto;html=1;entryX=0.5;entryY=0;entryDx=0;entryDy=0;" parent="1" source="z3keNY-oHB2SGLXwn3pg-27" target="TpgPHgEq3tiVcMTZVDCW-79" edge="1">
          <mxGeometry relative="1" as="geometry">
            <mxPoint x="108.48275862068976" y="860" as="targetPoint" />
          </mxGeometry>
        </mxCell>
        <mxCell id="z3keNY-oHB2SGLXwn3pg-27" value="mount SD card, init filesystem" style="rounded=1;whiteSpace=wrap;html=1;" parent="1" vertex="1">
          <mxGeometry x="28.5" y="810" width="160" height="30" as="geometry" />
        </mxCell>
        <mxCell id="z3keNY-oHB2SGLXwn3pg-32" style="edgeStyle=orthogonalEdgeStyle;rounded=0;orthogonalLoop=1;jettySize=auto;html=1;entryX=0.5;entryY=0;entryDx=0;entryDy=0;" parent="1" source="TpgPHgEq3tiVcMTZVDCW-79" target="TpgPHgEq3tiVcMTZVDCW-79" edge="1">
          <mxGeometry relative="1" as="geometry">
            <Array as="points">
              <mxPoint x="184.5" y="909.98" />
              <mxPoint x="184.5" y="864.98" />
            </Array>
          </mxGeometry>
        </mxCell>
        <mxCell id="z3keNY-oHB2SGLXwn3pg-40" style="edgeStyle=orthogonalEdgeStyle;rounded=0;orthogonalLoop=1;jettySize=auto;html=1;entryX=0;entryY=0.5;entryDx=0;entryDy=0;" parent="1" source="z3keNY-oHB2SGLXwn3pg-33" target="z3keNY-oHB2SGLXwn3pg-35" edge="1">
          <mxGeometry relative="1" as="geometry">
            <Array as="points">
              <mxPoint x="40" y="1039.98" />
            </Array>
          </mxGeometry>
        </mxCell>
        <mxCell id="z3keNY-oHB2SGLXwn3pg-33" value="process event" style="rounded=1;whiteSpace=wrap;html=1;" parent="1" vertex="1">
          <mxGeometry x="28.5" y="974.98" width="160" height="30" as="geometry" />
        </mxCell>
        <mxCell id="z3keNY-oHB2SGLXwn3pg-51" style="edgeStyle=orthogonalEdgeStyle;rounded=0;orthogonalLoop=1;jettySize=auto;html=1;entryX=0;entryY=0.5;entryDx=0;entryDy=0;" parent="1" source="z3keNY-oHB2SGLXwn3pg-35" target="z3keNY-oHB2SGLXwn3pg-38" edge="1">
          <mxGeometry relative="1" as="geometry" />
        </mxCell>
        <mxCell id="z3keNY-oHB2SGLXwn3pg-35" value="Event: LOG" style="rounded=1;whiteSpace=wrap;html=1;" parent="1" vertex="1">
          <mxGeometry x="61.75" y="1024.98" width="160" height="30" as="geometry" />
        </mxCell>
        <mxCell id="z3keNY-oHB2SGLXwn3pg-38" value="save log to file" style="rounded=1;whiteSpace=wrap;html=1;" parent="1" vertex="1">
          <mxGeometry x="260.25" y="1024.98" width="160" height="30" as="geometry" />
        </mxCell>
        <mxCell id="z3keNY-oHB2SGLXwn3pg-52" style="edgeStyle=orthogonalEdgeStyle;rounded=0;orthogonalLoop=1;jettySize=auto;html=1;entryX=0;entryY=0.5;entryDx=0;entryDy=0;" parent="1" source="z3keNY-oHB2SGLXwn3pg-39" target="z3keNY-oHB2SGLXwn3pg-41" edge="1">
          <mxGeometry relative="1" as="geometry" />
        </mxCell>
        <mxCell id="z3keNY-oHB2SGLXwn3pg-39" value="Event: profile load" style="rounded=1;whiteSpace=wrap;html=1;" parent="1" vertex="1">
          <mxGeometry x="61.75" y="1102.98" width="160" height="30" as="geometry" />
        </mxCell>
        <mxCell id="z3keNY-oHB2SGLXwn3pg-43" style="edgeStyle=orthogonalEdgeStyle;rounded=0;orthogonalLoop=1;jettySize=auto;html=1;" parent="1" source="z3keNY-oHB2SGLXwn3pg-41" target="z3keNY-oHB2SGLXwn3pg-42" edge="1">
          <mxGeometry relative="1" as="geometry" />
        </mxCell>
        <mxCell id="z3keNY-oHB2SGLXwn3pg-41" value="read profile files" style="rounded=1;whiteSpace=wrap;html=1;" parent="1" vertex="1">
          <mxGeometry x="260.25" y="1072.48" width="160" height="30" as="geometry" />
        </mxCell>
        <mxCell id="7Rm9NRKuivuSp9orqNc0-21" style="edgeStyle=orthogonalEdgeStyle;rounded=0;orthogonalLoop=1;jettySize=auto;html=1;fillColor=#dae8fc;strokeColor=#6c8ebf;strokeWidth=2;" parent="1" source="z3keNY-oHB2SGLXwn3pg-42" edge="1">
          <mxGeometry relative="1" as="geometry">
            <mxPoint x="590" y="1040" as="targetPoint" />
            <Array as="points">
              <mxPoint x="340" y="1170" />
              <mxPoint x="500" y="1170" />
              <mxPoint x="500" y="1060" />
              <mxPoint x="590" y="1060" />
            </Array>
          </mxGeometry>
        </mxCell>
        <mxCell id="z3keNY-oHB2SGLXwn3pg-42" value="send profiles separately to Event Queue" style="rounded=1;whiteSpace=wrap;html=1;" parent="1" vertex="1">
          <mxGeometry x="260.25" y="1132.48" width="160" height="30" as="geometry" />
        </mxCell>
        <mxCell id="z3keNY-oHB2SGLXwn3pg-53" style="edgeStyle=orthogonalEdgeStyle;rounded=0;orthogonalLoop=1;jettySize=auto;html=1;entryX=0;entryY=0.5;entryDx=0;entryDy=0;" parent="1" source="z3keNY-oHB2SGLXwn3pg-44" target="z3keNY-oHB2SGLXwn3pg-45" edge="1">
          <mxGeometry relative="1" as="geometry" />
        </mxCell>
        <mxCell id="z3keNY-oHB2SGLXwn3pg-44" value="Event: profile delete" style="rounded=1;whiteSpace=wrap;html=1;" parent="1" vertex="1">
          <mxGeometry x="61.75" y="1184.98" width="160" height="30" as="geometry" />
        </mxCell>
        <mxCell id="z3keNY-oHB2SGLXwn3pg-45" value="delete profile" style="rounded=1;whiteSpace=wrap;html=1;" parent="1" vertex="1">
          <mxGeometry x="260.25" y="1184.98" width="160" height="30" as="geometry" />
        </mxCell>
        <mxCell id="z3keNY-oHB2SGLXwn3pg-54" style="edgeStyle=orthogonalEdgeStyle;rounded=0;orthogonalLoop=1;jettySize=auto;html=1;entryX=0;entryY=0.5;entryDx=0;entryDy=0;" parent="1" source="z3keNY-oHB2SGLXwn3pg-46" target="z3keNY-oHB2SGLXwn3pg-47" edge="1">
          <mxGeometry relative="1" as="geometry" />
        </mxCell>
        <mxCell id="z3keNY-oHB2SGLXwn3pg-46" value="Event: read profile" style="rounded=1;whiteSpace=wrap;html=1;" parent="1" vertex="1">
          <mxGeometry x="61.75" y="1264.98" width="160" height="30" as="geometry" />
        </mxCell>
        <mxCell id="7Rm9NRKuivuSp9orqNc0-20" style="edgeStyle=orthogonalEdgeStyle;rounded=0;orthogonalLoop=1;jettySize=auto;html=1;fillColor=#dae8fc;strokeColor=#6c8ebf;strokeWidth=2;exitX=1;exitY=0.5;exitDx=0;exitDy=0;" parent="1" source="z3keNY-oHB2SGLXwn3pg-47" edge="1">
          <mxGeometry relative="1" as="geometry">
            <mxPoint x="500" y="1170" as="targetPoint" />
            <Array as="points">
              <mxPoint x="500" y="1280" />
            </Array>
          </mxGeometry>
        </mxCell>
        <mxCell id="z3keNY-oHB2SGLXwn3pg-47" value="read selected profile" style="rounded=1;whiteSpace=wrap;html=1;" parent="1" vertex="1">
          <mxGeometry x="260.25" y="1264.98" width="160" height="30" as="geometry" />
        </mxCell>
        <mxCell id="z3keNY-oHB2SGLXwn3pg-55" style="edgeStyle=orthogonalEdgeStyle;rounded=0;orthogonalLoop=1;jettySize=auto;html=1;entryX=0;entryY=0.5;entryDx=0;entryDy=0;" parent="1" source="z3keNY-oHB2SGLXwn3pg-48" target="z3keNY-oHB2SGLXwn3pg-49" edge="1">
          <mxGeometry relative="1" as="geometry" />
        </mxCell>
        <mxCell id="z3keNY-oHB2SGLXwn3pg-48" value="Event: new profile" style="rounded=1;whiteSpace=wrap;html=1;" parent="1" vertex="1">
          <mxGeometry x="61.75" y="1341.98" width="160" height="30" as="geometry" />
        </mxCell>
        <mxCell id="z3keNY-oHB2SGLXwn3pg-56" style="edgeStyle=orthogonalEdgeStyle;rounded=0;orthogonalLoop=1;jettySize=auto;html=1;" parent="1" source="z3keNY-oHB2SGLXwn3pg-49" target="z3keNY-oHB2SGLXwn3pg-50" edge="1">
          <mxGeometry relative="1" as="geometry" />
        </mxCell>
        <mxCell id="z3keNY-oHB2SGLXwn3pg-49" value="create new file" style="rounded=1;whiteSpace=wrap;html=1;" parent="1" vertex="1">
          <mxGeometry x="260.25" y="1312.48" width="160" height="30" as="geometry" />
        </mxCell>
        <mxCell id="z3keNY-oHB2SGLXwn3pg-62" style="edgeStyle=orthogonalEdgeStyle;rounded=0;orthogonalLoop=1;jettySize=auto;html=1;" parent="1" source="z3keNY-oHB2SGLXwn3pg-50" edge="1">
          <mxGeometry relative="1" as="geometry">
            <mxPoint x="185" y="864.98" as="targetPoint" />
            <Array as="points">
              <mxPoint x="340" y="1414.98" />
              <mxPoint x="440" y="1414.98" />
              <mxPoint x="440" y="864.98" />
            </Array>
          </mxGeometry>
        </mxCell>
        <mxCell id="z3keNY-oHB2SGLXwn3pg-50" value="save profile data" style="rounded=1;whiteSpace=wrap;html=1;" parent="1" vertex="1">
          <mxGeometry x="260.25" y="1372.48" width="160" height="30" as="geometry" />
        </mxCell>
        <mxCell id="z3keNY-oHB2SGLXwn3pg-57" value="" style="endArrow=classic;html=1;rounded=0;entryX=0;entryY=0.5;entryDx=0;entryDy=0;" parent="1" target="z3keNY-oHB2SGLXwn3pg-48" edge="1">
          <mxGeometry width="50" height="50" relative="1" as="geometry">
            <mxPoint x="40" y="1034.98" as="sourcePoint" />
            <mxPoint x="320" y="1164.98" as="targetPoint" />
            <Array as="points">
              <mxPoint x="40" y="1356.98" />
            </Array>
          </mxGeometry>
        </mxCell>
        <mxCell id="z3keNY-oHB2SGLXwn3pg-58" value="" style="endArrow=classic;html=1;rounded=0;entryX=0;entryY=0.5;entryDx=0;entryDy=0;" parent="1" target="z3keNY-oHB2SGLXwn3pg-39" edge="1">
          <mxGeometry width="50" height="50" relative="1" as="geometry">
            <mxPoint x="40" y="1117.98" as="sourcePoint" />
            <mxPoint x="130" y="1094.98" as="targetPoint" />
          </mxGeometry>
        </mxCell>
        <mxCell id="z3keNY-oHB2SGLXwn3pg-59" value="" style="endArrow=classic;html=1;rounded=0;entryX=0;entryY=0.5;entryDx=0;entryDy=0;" parent="1" edge="1">
          <mxGeometry width="50" height="50" relative="1" as="geometry">
            <mxPoint x="39.75" y="1199.88" as="sourcePoint" />
            <mxPoint x="61.75" y="1199.88" as="targetPoint" />
          </mxGeometry>
        </mxCell>
        <mxCell id="z3keNY-oHB2SGLXwn3pg-60" value="" style="endArrow=classic;html=1;rounded=0;entryX=0;entryY=0.5;entryDx=0;entryDy=0;" parent="1" edge="1">
          <mxGeometry width="50" height="50" relative="1" as="geometry">
            <mxPoint x="39.75" y="1279.93" as="sourcePoint" />
            <mxPoint x="61.75" y="1279.93" as="targetPoint" />
          </mxGeometry>
        </mxCell>
        <mxCell id="z3keNY-oHB2SGLXwn3pg-63" value="" style="endArrow=classic;html=1;rounded=0;" parent="1" edge="1">
          <mxGeometry width="50" height="50" relative="1" as="geometry">
            <mxPoint x="420.25" y="1199.7800000000002" as="sourcePoint" />
            <mxPoint x="440" y="1199.89" as="targetPoint" />
          </mxGeometry>
        </mxCell>
        <mxCell id="z3keNY-oHB2SGLXwn3pg-64" value="" style="endArrow=classic;html=1;rounded=0;" parent="1" edge="1">
          <mxGeometry width="50" height="50" relative="1" as="geometry">
            <mxPoint x="420.25" y="1147.2800000000002" as="sourcePoint" />
            <mxPoint x="440" y="1147.39" as="targetPoint" />
          </mxGeometry>
        </mxCell>
        <mxCell id="z3keNY-oHB2SGLXwn3pg-65" value="" style="endArrow=classic;html=1;rounded=0;" parent="1" edge="1">
          <mxGeometry width="50" height="50" relative="1" as="geometry">
            <mxPoint x="420.25" y="1039.7800000000002" as="sourcePoint" />
            <mxPoint x="440" y="1039.89" as="targetPoint" />
          </mxGeometry>
        </mxCell>
        <mxCell id="z3keNY-oHB2SGLXwn3pg-70" style="edgeStyle=orthogonalEdgeStyle;rounded=0;orthogonalLoop=1;jettySize=auto;html=1;entryX=0.5;entryY=0;entryDx=0;entryDy=0;" parent="1" source="z3keNY-oHB2SGLXwn3pg-66" target="z3keNY-oHB2SGLXwn3pg-67" edge="1">
          <mxGeometry relative="1" as="geometry" />
        </mxCell>
        <mxCell id="z3keNY-oHB2SGLXwn3pg-66" value="send requests to Event Queue" style="rounded=1;whiteSpace=wrap;html=1;" parent="1" vertex="1">
          <mxGeometry x="1080" y="1450" width="160" height="30" as="geometry" />
        </mxCell>
        <mxCell id="z3keNY-oHB2SGLXwn3pg-71" style="edgeStyle=orthogonalEdgeStyle;rounded=0;orthogonalLoop=1;jettySize=auto;html=1;entryX=1;entryY=0.5;entryDx=0;entryDy=0;" parent="1" source="z3keNY-oHB2SGLXwn3pg-67" target="7Rm9NRKuivuSp9orqNc0-13" edge="1">
          <mxGeometry relative="1" as="geometry">
            <Array as="points">
              <mxPoint x="1160" y="1540" />
              <mxPoint x="1260" y="1540" />
              <mxPoint x="1260" y="1315" />
            </Array>
          </mxGeometry>
        </mxCell>
        <mxCell id="7Rm9NRKuivuSp9orqNc0-2" style="edgeStyle=orthogonalEdgeStyle;rounded=0;orthogonalLoop=1;jettySize=auto;html=1;exitX=0;exitY=0.75;exitDx=0;exitDy=0;fillColor=#dae8fc;strokeColor=#6c8ebf;strokeWidth=2;" parent="1" source="z3keNY-oHB2SGLXwn3pg-67" edge="1">
          <mxGeometry relative="1" as="geometry">
            <mxPoint x="1020" y="1040" as="targetPoint" />
            <Array as="points">
              <mxPoint x="1020" y="1523" />
            </Array>
          </mxGeometry>
        </mxCell>
        <mxCell id="z3keNY-oHB2SGLXwn3pg-67" value="receive task responses from Server Queue" style="rounded=1;whiteSpace=wrap;html=1;" parent="1" vertex="1">
          <mxGeometry x="1080" y="1500" width="160" height="30" as="geometry" />
        </mxCell>
        <mxCell id="7Rm9NRKuivuSp9orqNc0-1" style="edgeStyle=orthogonalEdgeStyle;rounded=0;orthogonalLoop=1;jettySize=auto;html=1;entryX=0;entryY=0.5;entryDx=0;entryDy=0;fillColor=#fff2cc;strokeColor=#d6b656;strokeWidth=2;" parent="1" source="z3keNY-oHB2SGLXwn3pg-68" target="z3keNY-oHB2SGLXwn3pg-67" edge="1">
          <mxGeometry relative="1" as="geometry">
            <Array as="points">
              <mxPoint x="910" y="1100" />
              <mxPoint x="1050" y="1100" />
              <mxPoint x="1050" y="1515" />
            </Array>
          </mxGeometry>
        </mxCell>
        <mxCell id="z3keNY-oHB2SGLXwn3pg-68" value="Server&lt;br&gt;Queue" style="shape=trapezoid;perimeter=trapezoidPerimeter;whiteSpace=wrap;html=1;fixedSize=1;fillColor=#fff2cc;strokeColor=#d6b656;" parent="1" vertex="1">
          <mxGeometry x="860" y="959.36" width="100" height="40" as="geometry" />
        </mxCell>
        <mxCell id="z3keNY-oHB2SGLXwn3pg-76" style="edgeStyle=orthogonalEdgeStyle;rounded=0;orthogonalLoop=1;jettySize=auto;html=1;fillColor=#dae8fc;strokeColor=#6c8ebf;strokeWidth=2;exitX=0.5;exitY=1;exitDx=0;exitDy=0;endArrow=none;endFill=0;entryX=1;entryY=0.25;entryDx=0;entryDy=0;" parent="1" source="TpgPHgEq3tiVcMTZVDCW-125" target="9D3ErynZmHLSVG8jpGAm-15" edge="1">
          <mxGeometry relative="1" as="geometry">
            <mxPoint x="670" y="184" as="targetPoint" />
            <Array as="points">
              <mxPoint x="650" y="1010" />
              <mxPoint x="720" y="1010" />
              <mxPoint x="720" y="189" />
            </Array>
          </mxGeometry>
        </mxCell>
        <mxCell id="z3keNY-oHB2SGLXwn3pg-84" style="edgeStyle=orthogonalEdgeStyle;rounded=0;orthogonalLoop=1;jettySize=auto;html=1;fillColor=#d5e8d4;strokeColor=#82b366;strokeWidth=2;" parent="1" source="z3keNY-oHB2SGLXwn3pg-83" edge="1">
          <mxGeometry relative="1" as="geometry">
            <mxPoint x="440" y="980" as="targetPoint" />
            <Array as="points">
              <mxPoint x="520" y="1010" />
              <mxPoint x="460" y="1010" />
              <mxPoint x="460" y="979" />
            </Array>
          </mxGeometry>
        </mxCell>
        <mxCell id="z3keNY-oHB2SGLXwn3pg-83" value="SD&lt;br&gt;Queue" style="shape=trapezoid;perimeter=trapezoidPerimeter;whiteSpace=wrap;html=1;fixedSize=1;fillColor=#d5e8d4;strokeColor=#82b366;" parent="1" vertex="1">
          <mxGeometry x="469.75" y="958.72" width="100" height="40" as="geometry" />
        </mxCell>
        <mxCell id="7Rm9NRKuivuSp9orqNc0-8" style="edgeStyle=orthogonalEdgeStyle;rounded=0;orthogonalLoop=1;jettySize=auto;html=1;entryX=0;entryY=0.5;entryDx=0;entryDy=0;fillColor=#ffe6cc;strokeColor=#d79b00;strokeWidth=2;" parent="1" source="7Rm9NRKuivuSp9orqNc0-7" target="TpgPHgEq3tiVcMTZVDCW-103" edge="1">
          <mxGeometry relative="1" as="geometry">
            <Array as="points">
              <mxPoint x="1030" y="1070" />
              <mxPoint x="510" y="1070" />
              <mxPoint x="510" y="1495" />
            </Array>
          </mxGeometry>
        </mxCell>
        <mxCell id="7Rm9NRKuivuSp9orqNc0-7" value="UI&lt;br&gt;Queue" style="shape=trapezoid;perimeter=trapezoidPerimeter;whiteSpace=wrap;html=1;fixedSize=1;fillColor=#ffe6cc;strokeColor=#d79b00;" parent="1" vertex="1">
          <mxGeometry x="980" y="958.08" width="100" height="41.28" as="geometry" />
        </mxCell>
        <mxCell id="7Rm9NRKuivuSp9orqNc0-11" style="edgeStyle=orthogonalEdgeStyle;rounded=0;orthogonalLoop=1;jettySize=auto;html=1;entryX=0.5;entryY=0;entryDx=0;entryDy=0;" parent="1" source="7Rm9NRKuivuSp9orqNc0-9" target="7Rm9NRKuivuSp9orqNc0-10" edge="1">
          <mxGeometry relative="1" as="geometry" />
        </mxCell>
        <mxCell id="7Rm9NRKuivuSp9orqNc0-9" value="setup MQTT client" style="rounded=1;whiteSpace=wrap;html=1;" parent="1" vertex="1">
          <mxGeometry x="1080" y="1099.97" width="160" height="30" as="geometry" />
        </mxCell>
        <mxCell id="7Rm9NRKuivuSp9orqNc0-12" style="edgeStyle=orthogonalEdgeStyle;rounded=0;orthogonalLoop=1;jettySize=auto;html=1;entryX=0.5;entryY=0;entryDx=0;entryDy=0;" parent="1" source="7Rm9NRKuivuSp9orqNc0-10" target="TpgPHgEq3tiVcMTZVDCW-109" edge="1">
          <mxGeometry relative="1" as="geometry" />
        </mxCell>
        <mxCell id="7Rm9NRKuivuSp9orqNc0-10" value="connect to MQTT broker" style="rounded=1;whiteSpace=wrap;html=1;" parent="1" vertex="1">
          <mxGeometry x="1080" y="1147.47" width="160" height="30" as="geometry" />
        </mxCell>
        <mxCell id="7Rm9NRKuivuSp9orqNc0-16" style="edgeStyle=orthogonalEdgeStyle;rounded=0;orthogonalLoop=1;jettySize=auto;html=1;entryX=0.5;entryY=0;entryDx=0;entryDy=0;" parent="1" source="7Rm9NRKuivuSp9orqNc0-13" target="7Rm9NRKuivuSp9orqNc0-15" edge="1">
          <mxGeometry relative="1" as="geometry" />
        </mxCell>
        <mxCell id="7Rm9NRKuivuSp9orqNc0-13" value="receive data from&lt;br&gt;Regulator Queue" style="rounded=1;whiteSpace=wrap;html=1;" parent="1" vertex="1">
          <mxGeometry x="1080" y="1300" width="160" height="30" as="geometry" />
        </mxCell>
        <mxCell id="7Rm9NRKuivuSp9orqNc0-17" style="edgeStyle=orthogonalEdgeStyle;rounded=0;orthogonalLoop=1;jettySize=auto;html=1;" parent="1" source="7Rm9NRKuivuSp9orqNc0-15" target="TpgPHgEq3tiVcMTZVDCW-115" edge="1">
          <mxGeometry relative="1" as="geometry" />
        </mxCell>
        <mxCell id="7Rm9NRKuivuSp9orqNc0-15" value="send data to broker" style="rounded=1;whiteSpace=wrap;html=1;" parent="1" vertex="1">
          <mxGeometry x="1080" y="1350" width="160" height="30" as="geometry" />
        </mxCell>
        <mxCell id="7Rm9NRKuivuSp9orqNc0-18" value="" style="endArrow=classic;html=1;rounded=0;entryX=0;entryY=0.5;entryDx=0;entryDy=0;fillColor=#f8cecc;strokeColor=#b85450;strokeWidth=2;" parent="1" target="7Rm9NRKuivuSp9orqNc0-13" edge="1">
          <mxGeometry width="50" height="50" relative="1" as="geometry">
            <mxPoint x="790" y="1110" as="sourcePoint" />
            <mxPoint x="830" y="1130" as="targetPoint" />
            <Array as="points">
              <mxPoint x="1060" y="1110" />
              <mxPoint x="1060" y="1315" />
            </Array>
          </mxGeometry>
        </mxCell>
        <mxCell id="1K6tCah-ZMt7pKSe4DMA-20" style="edgeStyle=orthogonalEdgeStyle;rounded=0;orthogonalLoop=1;jettySize=auto;html=1;entryX=0.5;entryY=0;entryDx=0;entryDy=0;" parent="1" source="1K6tCah-ZMt7pKSe4DMA-2" target="1K6tCah-ZMt7pKSe4DMA-6" edge="1">
          <mxGeometry relative="1" as="geometry">
            <Array as="points">
              <mxPoint x="830" y="1285" />
              <mxPoint x="830" y="1330" />
              <mxPoint x="896" y="1330" />
            </Array>
          </mxGeometry>
        </mxCell>
        <mxCell id="1K6tCah-ZMt7pKSe4DMA-23" style="edgeStyle=orthogonalEdgeStyle;rounded=0;orthogonalLoop=1;jettySize=auto;html=1;entryX=0.5;entryY=0;entryDx=0;entryDy=0;" parent="1" source="1K6tCah-ZMt7pKSe4DMA-2" target="TpgPHgEq3tiVcMTZVDCW-100" edge="1">
          <mxGeometry relative="1" as="geometry" />
        </mxCell>
        <mxCell id="1K6tCah-ZMt7pKSe4DMA-2" value="start Expander Interrupt Task" style="rounded=1;whiteSpace=wrap;html=1;" parent="1" vertex="1">
          <mxGeometry x="550" y="1270" width="160" height="30" as="geometry" />
        </mxCell>
        <mxCell id="1K6tCah-ZMt7pKSe4DMA-5" style="edgeStyle=orthogonalEdgeStyle;rounded=0;orthogonalLoop=1;jettySize=auto;html=1;exitX=0.5;exitY=1;exitDx=0;exitDy=0;entryX=0.5;entryY=0;entryDx=0;entryDy=0;" parent="1" source="1K6tCah-ZMt7pKSe4DMA-3" target="1K6tCah-ZMt7pKSe4DMA-4" edge="1">
          <mxGeometry relative="1" as="geometry" />
        </mxCell>
        <mxCell id="1K6tCah-ZMt7pKSe4DMA-3" value="Expander ISR" style="rounded=1;whiteSpace=wrap;html=1;" parent="1" vertex="1">
          <mxGeometry x="820" y="1150" width="160" height="30" as="geometry" />
        </mxCell>
        <mxCell id="1K6tCah-ZMt7pKSe4DMA-14" style="edgeStyle=orthogonalEdgeStyle;rounded=0;orthogonalLoop=1;jettySize=auto;html=1;exitX=1;exitY=0.5;exitDx=0;exitDy=0;entryX=1;entryY=0.5;entryDx=0;entryDy=0;" parent="1" source="1K6tCah-ZMt7pKSe4DMA-4" target="1K6tCah-ZMt7pKSe4DMA-7" edge="1">
          <mxGeometry relative="1" as="geometry">
            <Array as="points">
              <mxPoint x="995" y="1219" />
              <mxPoint x="995" y="1413" />
              <mxPoint x="979" y="1413" />
            </Array>
          </mxGeometry>
        </mxCell>
        <mxCell id="1K6tCah-ZMt7pKSe4DMA-4" value="notify Expander Interrupt Task about interrupt event" style="rounded=1;whiteSpace=wrap;html=1;" parent="1" vertex="1">
          <mxGeometry x="820" y="1203.78" width="160" height="30" as="geometry" />
        </mxCell>
        <mxCell id="1K6tCah-ZMt7pKSe4DMA-10" style="edgeStyle=orthogonalEdgeStyle;rounded=0;orthogonalLoop=1;jettySize=auto;html=1;exitX=0.5;exitY=1;exitDx=0;exitDy=0;entryX=0.5;entryY=0;entryDx=0;entryDy=0;" parent="1" source="1K6tCah-ZMt7pKSe4DMA-6" target="1K6tCah-ZMt7pKSe4DMA-7" edge="1">
          <mxGeometry relative="1" as="geometry" />
        </mxCell>
        <mxCell id="1K6tCah-ZMt7pKSe4DMA-6" value="Expander Interrupt Task" style="rounded=1;whiteSpace=wrap;html=1;" parent="1" vertex="1">
          <mxGeometry x="815.5" y="1347.5" width="160" height="30" as="geometry" />
        </mxCell>
        <mxCell id="1K6tCah-ZMt7pKSe4DMA-11" style="edgeStyle=orthogonalEdgeStyle;rounded=0;orthogonalLoop=1;jettySize=auto;html=1;entryX=0.5;entryY=0;entryDx=0;entryDy=0;" parent="1" source="1K6tCah-ZMt7pKSe4DMA-7" target="1K6tCah-ZMt7pKSe4DMA-8" edge="1">
          <mxGeometry relative="1" as="geometry" />
        </mxCell>
        <mxCell id="1K6tCah-ZMt7pKSe4DMA-7" value="wait for interrupt event notification" style="rounded=1;whiteSpace=wrap;html=1;" parent="1" vertex="1">
          <mxGeometry x="818.5" y="1397.5" width="160" height="30" as="geometry" />
        </mxCell>
        <mxCell id="1K6tCah-ZMt7pKSe4DMA-12" style="edgeStyle=orthogonalEdgeStyle;rounded=0;orthogonalLoop=1;jettySize=auto;html=1;entryX=0.5;entryY=0;entryDx=0;entryDy=0;" parent="1" source="1K6tCah-ZMt7pKSe4DMA-8" target="1K6tCah-ZMt7pKSe4DMA-9" edge="1">
          <mxGeometry relative="1" as="geometry" />
        </mxCell>
        <mxCell id="1K6tCah-ZMt7pKSe4DMA-8" value="read expander port,&lt;br&gt;determine pressed button" style="rounded=1;whiteSpace=wrap;html=1;" parent="1" vertex="1">
          <mxGeometry x="818.5" y="1447.5" width="160" height="30" as="geometry" />
        </mxCell>
        <mxCell id="1K6tCah-ZMt7pKSe4DMA-19" style="edgeStyle=orthogonalEdgeStyle;rounded=0;orthogonalLoop=1;jettySize=auto;html=1;entryX=0.5;entryY=1;entryDx=0;entryDy=0;strokeWidth=2;strokeColor=#009999;exitX=0;exitY=0.5;exitDx=0;exitDy=0;" parent="1" source="1K6tCah-ZMt7pKSe4DMA-9" target="1K6tCah-ZMt7pKSe4DMA-16" edge="1">
          <mxGeometry relative="1" as="geometry">
            <Array as="points">
              <mxPoint x="800" y="1513" />
              <mxPoint x="800" y="1320" />
              <mxPoint x="896" y="1320" />
            </Array>
          </mxGeometry>
        </mxCell>
        <mxCell id="1K6tCah-ZMt7pKSe4DMA-25" style="edgeStyle=orthogonalEdgeStyle;rounded=0;orthogonalLoop=1;jettySize=auto;html=1;entryX=0;entryY=0.5;entryDx=0;entryDy=0;" parent="1" source="1K6tCah-ZMt7pKSe4DMA-9" target="1K6tCah-ZMt7pKSe4DMA-7" edge="1">
          <mxGeometry relative="1" as="geometry">
            <Array as="points">
              <mxPoint x="899" y="1540" />
              <mxPoint x="790" y="1540" />
              <mxPoint x="790" y="1413" />
            </Array>
          </mxGeometry>
        </mxCell>
        <mxCell id="1K6tCah-ZMt7pKSe4DMA-9" value="send event to Interrupt Event Queue" style="rounded=1;whiteSpace=wrap;html=1;" parent="1" vertex="1">
          <mxGeometry x="818.5" y="1497.5" width="160" height="30" as="geometry" />
        </mxCell>
        <mxCell id="1K6tCah-ZMt7pKSe4DMA-22" style="edgeStyle=orthogonalEdgeStyle;rounded=0;orthogonalLoop=1;jettySize=auto;html=1;" parent="1" source="1K6tCah-ZMt7pKSe4DMA-15" target="1K6tCah-ZMt7pKSe4DMA-2" edge="1">
          <mxGeometry relative="1" as="geometry" />
        </mxCell>
        <mxCell id="1K6tCah-ZMt7pKSe4DMA-15" value="create Interrupt Event Queue" style="rounded=1;whiteSpace=wrap;html=1;" parent="1" vertex="1">
          <mxGeometry x="550" y="1220" width="160" height="30" as="geometry" />
        </mxCell>
        <mxCell id="1K6tCah-ZMt7pKSe4DMA-24" style="edgeStyle=orthogonalEdgeStyle;rounded=0;orthogonalLoop=1;jettySize=auto;html=1;exitX=0.5;exitY=0;exitDx=0;exitDy=0;entryX=1;entryY=0.5;entryDx=0;entryDy=0;strokeWidth=2;strokeColor=#009999;" parent="1" source="1K6tCah-ZMt7pKSe4DMA-16" target="TpgPHgEq3tiVcMTZVDCW-100" edge="1">
          <mxGeometry relative="1" as="geometry" />
        </mxCell>
        <mxCell id="1K6tCah-ZMt7pKSe4DMA-16" value="Interrupt&lt;br&gt;Event Queue" style="shape=trapezoid;perimeter=trapezoidPerimeter;whiteSpace=wrap;html=1;fixedSize=1;fillColor=#97EBF8;strokeColor=#009999;" parent="1" vertex="1">
          <mxGeometry x="845.5" y="1265" width="100" height="40" as="geometry" />
        </mxCell>
        <mxCell id="9D3ErynZmHLSVG8jpGAm-25" style="edgeStyle=orthogonalEdgeStyle;rounded=0;orthogonalLoop=1;jettySize=auto;html=1;entryX=0.5;entryY=0;entryDx=0;entryDy=0;" parent="1" source="1K6tCah-ZMt7pKSe4DMA-26" target="z3keNY-oHB2SGLXwn3pg-8" edge="1">
          <mxGeometry relative="1" as="geometry" />
        </mxCell>
        <mxCell id="1K6tCah-ZMt7pKSe4DMA-26" value="poll event from Event Queue&amp;nbsp;" style="rounded=1;whiteSpace=wrap;html=1;" parent="1" vertex="1">
          <mxGeometry x="485.24" y="339.97" width="160" height="30" as="geometry" />
        </mxCell>
        <mxCell id="9D3ErynZmHLSVG8jpGAm-22" style="edgeStyle=orthogonalEdgeStyle;rounded=0;orthogonalLoop=1;jettySize=auto;html=1;" parent="1" source="1K6tCah-ZMt7pKSe4DMA-29" target="9D3ErynZmHLSVG8jpGAm-20" edge="1">
          <mxGeometry relative="1" as="geometry" />
        </mxCell>
        <mxCell id="9D3ErynZmHLSVG8jpGAm-28" style="edgeStyle=orthogonalEdgeStyle;rounded=0;orthogonalLoop=1;jettySize=auto;html=1;entryX=0;entryY=0.5;entryDx=0;entryDy=0;" parent="1" source="1K6tCah-ZMt7pKSe4DMA-29" target="1K6tCah-ZMt7pKSe4DMA-34" edge="1">
          <mxGeometry relative="1" as="geometry">
            <Array as="points">
              <mxPoint x="459.98" y="255" />
              <mxPoint x="459.98" y="525" />
            </Array>
          </mxGeometry>
        </mxCell>
        <mxCell id="1K6tCah-ZMt7pKSe4DMA-29" value="init console, start Console Task" style="rounded=1;whiteSpace=wrap;html=1;" parent="1" vertex="1">
          <mxGeometry x="485.24" y="239.97" width="160" height="30" as="geometry" />
        </mxCell>
        <mxCell id="1K6tCah-ZMt7pKSe4DMA-36" style="edgeStyle=orthogonalEdgeStyle;rounded=0;orthogonalLoop=1;jettySize=auto;html=1;entryX=0.5;entryY=0;entryDx=0;entryDy=0;" parent="1" source="1K6tCah-ZMt7pKSe4DMA-34" target="z3keNY-oHB2SGLXwn3pg-12" edge="1">
          <mxGeometry relative="1" as="geometry" />
        </mxCell>
        <mxCell id="1K6tCah-ZMt7pKSe4DMA-34" value="Console Task" style="rounded=1;whiteSpace=wrap;html=1;" parent="1" vertex="1">
          <mxGeometry x="489.98" y="510" width="160" height="30" as="geometry" />
        </mxCell>
        <mxCell id="9D3ErynZmHLSVG8jpGAm-2" value="WiFi Manager Task" style="rounded=0;whiteSpace=wrap;html=1;" parent="1" vertex="1">
          <mxGeometry y="385" width="120" height="30" as="geometry" />
        </mxCell>
        <mxCell id="9D3ErynZmHLSVG8jpGAm-8" style="edgeStyle=orthogonalEdgeStyle;rounded=0;orthogonalLoop=1;jettySize=auto;html=1;entryX=0.5;entryY=0;entryDx=0;entryDy=0;" parent="1" source="9D3ErynZmHLSVG8jpGAm-3" target="9D3ErynZmHLSVG8jpGAm-4" edge="1">
          <mxGeometry relative="1" as="geometry" />
        </mxCell>
        <mxCell id="9D3ErynZmHLSVG8jpGAm-3" value="start SD Manager Task" style="rounded=1;whiteSpace=wrap;html=1;" parent="1" vertex="1">
          <mxGeometry x="18.5" y="170.03" width="160" height="30" as="geometry" />
        </mxCell>
        <mxCell id="9D3ErynZmHLSVG8jpGAm-9" style="edgeStyle=orthogonalEdgeStyle;rounded=0;orthogonalLoop=1;jettySize=auto;html=1;entryX=0.5;entryY=0;entryDx=0;entryDy=0;" parent="1" source="9D3ErynZmHLSVG8jpGAm-4" target="9D3ErynZmHLSVG8jpGAm-5" edge="1">
          <mxGeometry relative="1" as="geometry" />
        </mxCell>
        <mxCell id="9D3ErynZmHLSVG8jpGAm-4" value="start WiFi Manager Task" style="rounded=1;whiteSpace=wrap;html=1;" parent="1" vertex="1">
          <mxGeometry x="18.5" y="225.03" width="160" height="30" as="geometry" />
        </mxCell>
        <mxCell id="9D3ErynZmHLSVG8jpGAm-10" style="edgeStyle=orthogonalEdgeStyle;rounded=0;orthogonalLoop=1;jettySize=auto;html=1;entryX=0.5;entryY=0;entryDx=0;entryDy=0;" parent="1" source="9D3ErynZmHLSVG8jpGAm-5" target="9D3ErynZmHLSVG8jpGAm-6" edge="1">
          <mxGeometry relative="1" as="geometry" />
        </mxCell>
        <mxCell id="9D3ErynZmHLSVG8jpGAm-5" value="start Server Manager Task" style="rounded=1;whiteSpace=wrap;html=1;" parent="1" vertex="1">
          <mxGeometry x="18.5" y="280.03" width="160" height="30" as="geometry" />
        </mxCell>
        <mxCell id="9D3ErynZmHLSVG8jpGAm-6" value="start Profile Controller Task" style="rounded=1;whiteSpace=wrap;html=1;" parent="1" vertex="1">
          <mxGeometry x="18.5" y="330" width="160" height="30" as="geometry" />
        </mxCell>
        <mxCell id="9D3ErynZmHLSVG8jpGAm-14" style="edgeStyle=orthogonalEdgeStyle;rounded=0;orthogonalLoop=1;jettySize=auto;html=1;entryX=0.5;entryY=0;entryDx=0;entryDy=0;" parent="1" source="9D3ErynZmHLSVG8jpGAm-12" target="-iP6WzHZB8sq2N2tlhSQ-13" edge="1">
          <mxGeometry relative="1" as="geometry" />
        </mxCell>
        <mxCell id="9D3ErynZmHLSVG8jpGAm-12" value="wait for WiFi credentials" style="rounded=1;whiteSpace=wrap;html=1;" parent="1" vertex="1">
          <mxGeometry x="20" y="474" width="160" height="30" as="geometry" />
        </mxCell>
        <mxCell id="9D3ErynZmHLSVG8jpGAm-21" style="edgeStyle=orthogonalEdgeStyle;rounded=0;orthogonalLoop=1;jettySize=auto;html=1;entryX=0.5;entryY=0;entryDx=0;entryDy=0;" parent="1" source="9D3ErynZmHLSVG8jpGAm-15" target="1K6tCah-ZMt7pKSe4DMA-29" edge="1">
          <mxGeometry relative="1" as="geometry" />
        </mxCell>
        <mxCell id="9D3ErynZmHLSVG8jpGAm-15" value="load configuration from SD &lt;br&gt;or default from NVS" style="rounded=1;whiteSpace=wrap;html=1;" parent="1" vertex="1">
          <mxGeometry x="485.24" y="178.97" width="160" height="40" as="geometry" />
        </mxCell>
        <mxCell id="9D3ErynZmHLSVG8jpGAm-23" style="edgeStyle=orthogonalEdgeStyle;rounded=0;orthogonalLoop=1;jettySize=auto;html=1;entryX=0.5;entryY=0;entryDx=0;entryDy=0;" parent="1" source="9D3ErynZmHLSVG8jpGAm-20" target="1K6tCah-ZMt7pKSe4DMA-26" edge="1">
          <mxGeometry relative="1" as="geometry" />
        </mxCell>
        <mxCell id="9D3ErynZmHLSVG8jpGAm-20" value="send WiFi credentials to WiFi Manager Task" style="rounded=1;whiteSpace=wrap;html=1;" parent="1" vertex="1">
          <mxGeometry x="485.24" y="291.97" width="160" height="28" as="geometry" />
        </mxCell>
        <mxCell id="9D3ErynZmHLSVG8jpGAm-29" value="" style="endArrow=classic;html=1;rounded=0;entryX=1;entryY=0.5;entryDx=0;entryDy=0;strokeWidth=2;fillColor=#dae8fc;strokeColor=#6c8ebf;" parent="1" target="1K6tCah-ZMt7pKSe4DMA-26" edge="1">
          <mxGeometry width="50" height="50" relative="1" as="geometry">
            <mxPoint x="720" y="355" as="sourcePoint" />
            <mxPoint x="670" y="370" as="targetPoint" />
          </mxGeometry>
        </mxCell>
        <mxCell id="9D3ErynZmHLSVG8jpGAm-30" value="" style="endArrow=none;html=1;rounded=0;exitX=1.001;exitY=0.134;exitDx=0;exitDy=0;fillColor=#fff2cc;strokeColor=#d6b656;strokeWidth=2;exitPerimeter=0;" parent="1" source="z3keNY-oHB2SGLXwn3pg-8" edge="1">
          <mxGeometry width="50" height="50" relative="1" as="geometry">
            <mxPoint x="640" y="420" as="sourcePoint" />
            <mxPoint x="710" y="394" as="targetPoint" />
          </mxGeometry>
        </mxCell>
        <mxCell id="Hz_lffBR66mt_2aPibTp-6" style="edgeStyle=orthogonalEdgeStyle;rounded=0;orthogonalLoop=1;jettySize=auto;html=1;entryX=0;entryY=0.5;entryDx=0;entryDy=0;" edge="1" parent="1" source="Hz_lffBR66mt_2aPibTp-3" target="Hz_lffBR66mt_2aPibTp-4">
          <mxGeometry relative="1" as="geometry" />
        </mxCell>
        <mxCell id="Hz_lffBR66mt_2aPibTp-3" value="Event: load config" style="rounded=1;whiteSpace=wrap;html=1;" vertex="1" parent="1">
          <mxGeometry x="61.75" y="1443" width="160" height="30" as="geometry" />
        </mxCell>
        <mxCell id="Hz_lffBR66mt_2aPibTp-7" style="edgeStyle=orthogonalEdgeStyle;rounded=0;orthogonalLoop=1;jettySize=auto;html=1;strokeWidth=2;fillColor=#dae8fc;strokeColor=#6c8ebf;" edge="1" parent="1" source="Hz_lffBR66mt_2aPibTp-4">
          <mxGeometry relative="1" as="geometry">
            <mxPoint x="500" y="1280" as="targetPoint" />
          </mxGeometry>
        </mxCell>
        <mxCell id="Hz_lffBR66mt_2aPibTp-4" value="send config to Event Queue" style="rounded=1;whiteSpace=wrap;html=1;" vertex="1" parent="1">
          <mxGeometry x="260.25" y="1443" width="160" height="30" as="geometry" />
        </mxCell>
        <mxCell id="Hz_lffBR66mt_2aPibTp-5" value="" style="endArrow=classic;html=1;rounded=0;entryX=0;entryY=0.5;entryDx=0;entryDy=0;" edge="1" parent="1" target="Hz_lffBR66mt_2aPibTp-3">
          <mxGeometry width="50" height="50" relative="1" as="geometry">
            <mxPoint x="40" y="1350" as="sourcePoint" />
            <mxPoint x="380" y="1350" as="targetPoint" />
            <Array as="points">
              <mxPoint x="40" y="1458" />
            </Array>
          </mxGeometry>
        </mxCell>
        <mxCell id="Hz_lffBR66mt_2aPibTp-8" value="WiFi&lt;br&gt;Queue" style="shape=trapezoid;perimeter=trapezoidPerimeter;whiteSpace=wrap;html=1;fixedSize=1;fillColor=#e1d5e7;strokeColor=#9673a6;" vertex="1" parent="1">
          <mxGeometry x="469.75" y="790" width="100" height="40" as="geometry" />
        </mxCell>
        <mxCell id="Hz_lffBR66mt_2aPibTp-12" style="edgeStyle=orthogonalEdgeStyle;rounded=0;orthogonalLoop=1;jettySize=auto;html=1;exitX=1.001;exitY=0.85;exitDx=0;exitDy=0;entryX=0.5;entryY=0;entryDx=0;entryDy=0;strokeWidth=2;fillColor=#e1d5e7;strokeColor=#9673a6;exitPerimeter=0;" edge="1" parent="1" source="z3keNY-oHB2SGLXwn3pg-8" target="Hz_lffBR66mt_2aPibTp-8">
          <mxGeometry relative="1" as="geometry">
            <Array as="points">
              <mxPoint x="670" y="416" />
              <mxPoint x="670" y="770" />
              <mxPoint x="520" y="770" />
            </Array>
          </mxGeometry>
        </mxCell>
        <mxCell id="z3keNY-oHB2SGLXwn3pg-8" value="process event" style="rounded=1;whiteSpace=wrap;html=1;" parent="1" vertex="1">
          <mxGeometry x="485.24" y="389.97" width="160" height="30" as="geometry" />
        </mxCell>
      </root>
    </mxGraphModel>
  </diagram>
</mxfile>
